<?xml version="1.0" encoding="UTF-8"?>
<svg version="1.1" xmlns="http://www.w3.org/2000/svg" width="940" height="788">
<path d="M0 0 C3.58190335 1.26285144 7.04692089 2.76764694 10.52734375 4.28515625 C12.08103165 4.95050133 12.08103165 4.95050133 13.66610718 5.62928772 C17.09334428 7.09916024 20.51534546 8.58083737 23.9375 10.0625 C26.35732099 11.10285366 28.77749338 12.14239032 31.19799805 13.18115234 C36.25935122 15.35420142 41.31839943 17.53253357 46.37597656 19.71435547 C53.68026831 22.86488353 60.99146706 25.99915782 68.3046875 29.12890625 C69.46652557 29.62635345 70.62836365 30.12380066 71.82540894 30.63632202 C76.48139137 32.62970689 81.13752797 34.62272628 85.7946167 36.61352539 C97.43534287 41.58970744 109.0691985 46.57840517 120.65913391 51.67199707 C125.20883344 53.67029089 129.76367071 55.65671296 134.31893921 57.64227295 C136.46117636 58.58027392 138.60075273 59.52437811 140.73745728 60.47491455 C143.674042 61.78102852 146.61891871 63.06637938 149.56640625 64.34765625 C150.42413635 64.73590073 151.28186646 65.1241452 152.16558838 65.52415466 C158.16699514 68.09844151 162.01475851 68.47051101 168.30976868 66.14772034 C171.08627896 65.02599997 173.81953555 63.82843835 176.5546875 62.609375 C177.58706039 62.1577449 178.61943329 61.70611481 179.68309021 61.24079895 C181.91436831 60.26358225 184.14394198 59.28246652 186.37197876 58.29788208 C191.7622797 55.9160666 197.16281577 53.55769659 202.56186104 51.19578743 C204.4198648 50.38246895 206.27737394 49.56803064 208.13475037 48.75328064 C221.79709187 42.76194477 235.51118689 36.89314774 249.23120117 31.03540039 C251.24011892 30.17735684 253.24898889 29.31920142 255.2578125 28.4609375 C256.26296402 28.03157394 257.26811554 27.60221039 258.3037262 27.15983582 C265.33929836 24.15002563 272.3617319 21.11064912 279.37892151 18.05830383 C283.91302468 16.0861924 288.45026259 14.12133921 292.98817348 12.15800762 C296.13472822 10.79601179 299.2793997 9.42998018 302.42007446 8.05447388 C305.90476279 6.53034159 309.39500402 5.01966948 312.88671875 3.51171875 C314.44415298 2.82434128 314.44415298 2.82434128 316.03305054 2.12307739 C325.39252167 -1.89002319 325.39252167 -1.89002319 330 -1 C332.5194145 2.77912174 331.99331039 3.96673628 331.27490234 8.36349487 C331.07306335 9.62115536 330.87122437 10.87881584 330.66326904 12.17458725 C330.44439026 13.43697346 330.22551147 14.69935966 330 16 C329.71784637 17.63210608 329.71784637 17.63210608 329.42999268 19.29718399 C328.8405955 22.59686083 328.22500712 25.8906738 327.6015625 29.18408203 C327.25481476 31.03556602 327.25481476 31.03556602 326.90106201 32.92445374 C326.27536021 36.26102377 325.64691766 39.59705078 325.01677704 42.9327836 C324.48885601 45.72889284 323.96266142 48.52532603 323.43637276 51.32174289 C322.19558126 57.91395171 320.95133646 64.5055024 319.70507812 71.09667969 C318.42140614 77.88616603 317.14455744 84.67691188 315.870821 91.46826851 C314.77271305 97.32160635 313.66998285 103.1740609 312.56362724 109.02584541 C311.90464731 112.51175221 311.24751743 115.99798247 310.59503174 119.48511124 C309.86954554 123.36130904 309.13445285 127.23565023 308.3984375 131.10986328 C308.18435242 132.26103134 307.97026733 133.4121994 307.74969482 134.59825134 C307.54789612 135.65211533 307.34609741 136.70597931 307.13818359 137.79177856 C306.96564056 138.7064496 306.79309753 139.62112064 306.61532593 140.56350899 C305.7976972 143.80105346 305.04068157 146.28313411 302.23852539 148.21337891 C301.17879517 148.71490479 301.17879517 148.71490479 300.09765625 149.2265625 C299.29972656 149.61328125 298.50179688 150 297.6796875 150.3984375 C296.38417969 151.00558594 296.38417969 151.00558594 295.0625 151.625 C293.2295589 152.51114131 291.39754839 153.39920972 289.56640625 154.2890625 C288.6345752 154.73926758 287.70274414 155.18947266 286.74267578 155.65332031 C282.61421551 157.68043326 278.55745875 159.83516735 274.5 162 C267.32785968 165.80836108 260.10234723 169.4921439 252.81445312 173.07421875 C247.27759552 175.8114337 241.81133693 178.67180799 236.3515625 181.55859375 C224.07589671 188.04511246 211.69471334 194.32296857 199.31933594 200.61645508 C197.29720272 201.64518861 195.27541005 202.67459182 193.25396729 203.7046814 C191.28580516 204.70706045 189.31654527 205.70728732 187.34613037 206.70523071 C182.82882822 209.00182855 178.34929701 211.33800252 173.93066406 213.81982422 C173.15236237 214.25201767 172.37406067 214.68421112 171.57217407 215.12950134 C170.13717571 215.93184025 168.71028198 216.74892989 167.29379272 217.58351135 C162.68412975 220.15030325 162.68412975 220.15030325 159.49414062 219.44946289 C158.67107422 218.97114014 157.84800781 218.49281738 157 218 C155.88222168 217.46246094 154.76444336 216.92492187 153.61279297 216.37109375 C152.32152469 215.72870173 151.03138272 215.08404232 149.7421875 214.4375 C149.04591248 214.09002213 148.34963745 213.74254425 147.63226318 213.38453674 C145.37866538 212.25869294 143.12673378 211.12956677 140.875 210 C139.72218536 209.42292801 139.72218536 209.42292801 138.54608154 208.834198 C129.12476807 204.11714542 119.73572238 199.35192313 110.43701172 194.39648438 C104.28484046 191.12390407 98.06475872 187.99792457 91.81103516 184.92407227 C87.84651285 182.96419495 83.91021333 180.95991606 80.00585938 178.8828125 C72.08272588 174.6686097 64.13582474 170.54162728 56.06054688 166.62475586 C51.91547339 164.614081 47.78320239 162.57773933 43.65087891 160.54101562 C41.52714638 159.50235146 39.39773747 158.47522394 37.26318359 157.45898438 C34.12774604 155.96234185 31.01636537 154.42343988 27.90625 152.875 C26.4767804 152.21201904 26.4767804 152.21201904 25.01843262 151.53564453 C24.13901001 151.08817871 23.2595874 150.64071289 22.35351562 150.1796875 C21.5825354 149.80569824 20.81155518 149.43170898 20.01721191 149.04638672 C14.29601032 143.24243976 13.89077974 131.95803879 12.45629883 124.25756836 C12.22177505 123.0221077 11.98725128 121.78664703 11.74562073 120.51374817 C11.10844225 117.15529435 10.47810192 113.795593 9.84951997 110.43552089 C9.32213782 107.6195859 8.7915049 104.80426723 8.26094359 101.98892981 C7.00887319 95.34438486 5.76254134 88.69878121 4.51977539 82.05249023 C3.2413834 75.21626062 1.95300972 68.38196538 0.6597746 61.54852957 C-0.45446265 55.65889343 -1.56234033 49.76808481 -2.66522008 43.87631136 C-3.32216789 40.36717235 -3.98147948 36.85852144 -4.64699364 33.35099602 C-5.38872677 29.44005013 -6.11718589 25.52669466 -6.84448242 21.61303711 C-7.06418701 20.46421051 -7.2838916 19.31538391 -7.51025391 18.13174438 C-8.64230671 11.97357677 -9.2272678 6.2614865 -9 0 C-5.9309366 -1.5345317 -3.21294889 -0.78226045 0 0 Z " fill="#000000" transform="translate(291,257)"/>
<path d="M0 0 C0.73476562 0.28875 1.46953125 0.5775 2.2265625 0.875 C14.71485332 6.44746443 22.46392816 16.21355176 27.39979553 28.72660828 C28.46233577 31.52928669 29.49505135 34.34174655 30.51153564 37.16143799 C31.88210196 40.94916401 33.3053124 44.7169121 34.73046875 48.484375 C35.01051758 49.22519318 35.29056641 49.96601135 35.57910156 50.72927856 C41.54912263 66.41043178 48.86619045 80.61282846 59 94 C59.7115625 94.94230469 60.423125 95.88460937 61.15625 96.85546875 C71.92841789 110.64127885 84.1524807 123.30047129 98 134 C98.52480957 134.41185547 99.04961914 134.82371094 99.59033203 135.24804688 C112.40617378 145.25395795 126.418257 153.81544408 141 161 C137.87427529 157.84927872 134.7450669 154.70206864 131.61279297 151.55786133 C130.55099139 150.49107703 129.49009442 149.42339147 128.43017578 148.35473633 C122.9728148 142.85357217 117.5059771 137.42585079 111.609375 132.38891602 C109.63691578 130.68665259 107.80920368 128.87381809 106 127 C103.49249961 124.45848313 100.94927204 122.0242665 98.25 119.6875 C76.66728799 100.96823691 76.66728799 100.96823691 75.76171875 91.51171875 C75.60317105 85.47856139 75.70462184 81.63448696 80 77 C87.71359443 71.17544911 95.69635993 71.14766952 105 72 C108.67405084 72.84823073 111.72134938 74.15539762 115 76 C115.72058594 76.40089844 116.44117188 76.80179687 117.18359375 77.21484375 C123.11884777 80.86486627 128.10502648 85.59008442 133.16015625 90.33984375 C135.40548035 92.44309782 137.67140561 94.49092168 140 96.5 C144.88720024 100.74229134 149.63509448 105.13571249 154.39257812 109.52197266 C155.99161403 110.99228908 157.59664257 112.4557958 159.203125 113.91796875 C165.45729947 119.62715011 171.52512841 125.47549442 177.47851562 131.49780273 C180.21639939 134.25606261 182.96922576 136.92394011 185.9375 139.4375 C189.84273191 142.74575378 193.4025517 146.36535296 197 150 C201.13237304 154.17069572 205.26729731 158.23838436 209.75 162.03515625 C213.74136068 165.5206674 217.57300423 169.1815114 221.43017578 172.81420898 C224.81826187 175.996841 228.24556672 179.07947751 231.8125 182.0625 C251.51253385 199.57775566 258.69858449 224.74508469 261.4375 250.0625 C261.63529224 251.79259734 261.83413857 253.52257443 262.03393555 255.25244141 C262.58629885 260.07981002 263.11647453 264.90940615 263.6427002 269.73968506 C264.02437431 273.22241249 264.41332722 276.70427356 264.80371094 280.18603516 C265.51091478 286.49766061 266.20963055 292.81016877 266.90139771 299.12350464 C267.17363507 301.60779437 267.4471166 304.0919481 267.72189331 306.57595825 C268.10869272 310.08904845 268.48718385 313.60293733 268.86328125 317.1171875 C268.97864227 318.15527054 269.0940033 319.19335358 269.21286011 320.26289368 C270.92644597 336.53732133 270.71074233 353.06259145 260.75 366.8125 C256.60973207 371.84314813 251.55335733 375.88255364 245 377 C239.68083353 377.32488322 235.20379968 376.46779996 230.1875 374.8125 C229.48391357 374.58256348 228.78032715 374.35262695 228.05541992 374.11572266 C199.52023603 364.53954173 184.3456923 339.80814976 171.31811523 314.27050781 C162.90118853 297.83110878 153.58918142 282.39937605 142 268 C141.29738037 267.12384033 141.29738037 267.12384033 140.58056641 266.22998047 C129.92109102 253.07329048 117.85706463 241.00407649 105 230 C104.43410156 229.51233154 103.86820313 229.02466309 103.28515625 228.5222168 C101.65122992 227.11568505 100.0135237 225.71367198 98.375 224.3125 C97.77800293 223.80050049 97.18100586 223.28850098 96.56591797 222.76098633 C93.56874665 220.19158953 90.56544929 217.6301644 87.546875 215.0859375 C68.97408301 199.38949811 49.86293728 182.61431888 34.89453125 163.39453125 C32.88863424 160.85924287 30.75544307 158.49974146 28.5625 156.125 C23.3345868 150.36344168 18.61553134 144.25405331 14 138 C13.29786377 137.05060547 13.29786377 137.05060547 12.58154297 136.08203125 C6.63832516 127.99083 1.06599956 119.71947648 -4.125 111.125 C-4.5669873 110.39659912 -5.00897461 109.66819824 -5.46435547 108.91772461 C-14.50773735 93.67879573 -22.06869393 77.82405876 -29.0625 61.5625 C-30.17968388 58.98274986 -31.29898674 56.40393183 -32.41928101 53.82553101 C-33.15967187 52.11924037 -33.89767255 50.41191049 -34.63320923 48.70352173 C-36.53621871 44.29743194 -38.48841777 39.92290462 -40.52685547 35.57763672 C-40.93995468 34.68914536 -41.35305389 33.80065399 -41.77867126 32.88523865 C-42.56366804 31.20366212 -43.35896281 29.52683608 -44.16676331 27.85609436 C-47.20539684 21.32063256 -48.99233905 15.30779684 -46.875 8.25 C-43.43800671 2.29254496 -39.53784872 -0.92945539 -33.12890625 -3.26953125 C-21.82927846 -5.90752176 -10.65219641 -4.29668427 0 0 Z " fill="#000000" transform="translate(165,348)"/>
<path d="M0 0 C4.17205653 3.24972172 6.26797492 6.50800192 7.125 11.75 C7.39146791 20.93754393 2.33236545 29.80604573 -1.34375 38.0390625 C-1.95260544 39.41331894 -1.95260544 39.41331894 -2.57376099 40.81533813 C-3.87787258 43.7539802 -5.18819566 46.68978461 -6.5 49.625 C-6.94752625 50.62833374 -7.39505249 51.63166748 -7.85614014 52.66540527 C-27.05688034 95.6855791 -48.86366467 133.54342761 -80.734375 168.48828125 C-81.9853581 169.875147 -83.22975707 171.26839945 -84.44433594 172.68725586 C-89.17171084 178.19622901 -94.19055882 183.37674105 -99.32324219 188.50854492 C-100.73919947 189.92668284 -102.14698289 191.35296665 -103.5546875 192.77929688 C-108.97308056 198.2090097 -114.54982865 203.21986732 -120.54003906 208.01000977 C-123.66499559 210.53794949 -126.59107605 213.2298034 -129.5 216 C-134.35472542 220.5586701 -139.38005079 224.80859723 -144.57421875 228.98046875 C-147.33962575 231.28274801 -149.83891938 233.74625656 -152.3359375 236.33203125 C-154.09033743 238.09054949 -155.92433565 239.69890935 -157.8125 241.3125 C-166.45416068 248.80305144 -173.9026853 257.05402227 -181 266 C-181.65613281 266.78890625 -182.31226563 267.5778125 -182.98828125 268.390625 C-195.74074083 283.82646786 -205.83994469 301.38474352 -214.625 319.3125 C-226.15727855 342.78570481 -242.83314177 365.42116355 -268.49609375 374.1953125 C-277.59724979 376.94973644 -284.66114149 378.25100688 -293.57421875 374.3828125 C-301.92722665 369.62119447 -306.47933934 360.37535861 -309.0078125 351.4375 C-310.64765261 344.46297352 -311.18859889 337.80003553 -310.69067383 330.66015625 C-310.64186223 329.88628067 -310.59305063 329.11240509 -310.5427599 328.31507874 C-309.95408141 319.49930124 -309.03314769 310.71933946 -308.07421875 301.9375 C-307.88333047 300.16790007 -307.69256273 298.39828714 -307.50190735 296.62866211 C-307.10436617 292.95095535 -306.70292976 289.2736979 -306.29907227 285.59667969 C-305.78816284 280.93890229 -305.29091182 276.27977725 -304.79707623 271.62016296 C-304.40847261 267.97460571 -304.01055379 264.33010627 -303.61020851 260.68582153 C-303.42321611 258.9705811 -303.23938679 257.25499211 -303.05911827 255.53903198 C-302.12616582 246.69398828 -300.94386629 237.99652753 -299.03051758 229.3046875 C-298.87242206 228.58608047 -298.71432653 227.86747345 -298.55144024 227.12709045 C-293.1106702 203.66886659 -278.7053249 186.42964048 -261 171 C-260.31421875 170.40058594 -259.6284375 169.80117188 -258.921875 169.18359375 C-257.68081146 168.10157406 -256.43861994 167.02084681 -255.1953125 165.94140625 C-248.17422253 159.73236405 -241.26717879 153.38069587 -234.71264648 146.6796875 C-232.99945175 144.9994623 -231.2223936 143.44867757 -229.39453125 141.89453125 C-224.52695232 137.66027836 -220.02336842 133.09597465 -215.5 128.5 C-210.45467965 123.37369537 -205.39334933 118.37015814 -199.93408203 113.68457031 C-196.58735821 110.76960006 -193.40196853 107.68403845 -190.1875 104.625 C-184.81414462 99.54563138 -179.37579483 94.71236223 -173.578125 90.12109375 C-170.73724201 87.78382183 -168.10275558 85.28497074 -165.4375 82.75 C-155.78783024 73.86069104 -146.72481317 71.49300586 -133.9375 71.71875 C-127.6806451 72.16566821 -124.26465869 73.91413015 -119.625 78.1875 C-117.00909497 82.71502794 -115.50093264 87.11491533 -116.41015625 92.37109375 C-118.82409889 100.19332318 -123.49253796 105.80813138 -129.25 111.4375 C-129.78496094 111.97181641 -130.31992187 112.50613281 -130.87109375 113.05664062 C-134.46045359 116.60763439 -138.19422902 119.95402864 -142.00878906 123.26049805 C-145.15009447 126.00471102 -148.20561996 128.83657156 -151.25 131.6875 C-151.91386719 132.30890869 -152.57773437 132.93031738 -153.26171875 133.57055664 C-162.38049592 142.16960535 -171.18255437 151.09410777 -180 160 C-172.64436147 156.43483889 -165.51629425 152.71171767 -158.625 148.3125 C-157.41082397 147.54039185 -157.41082397 147.54039185 -156.17211914 146.75268555 C-145.81903266 140.06902156 -136.36363209 132.46329711 -127.3046875 124.1171875 C-125.01151594 122.01057905 -122.66708271 119.97496719 -120.3125 117.9375 C-116.15307188 114.22734809 -112.53588692 110.30245616 -109 106 C-108.56816406 105.4858252 -108.13632812 104.97165039 -107.69140625 104.44189453 C-89.44147435 82.67427589 -78.79477143 58.76320154 -68.87207031 32.36425781 C-68.58006241 31.5952565 -68.2880545 30.82625519 -67.98719788 30.03395081 C-67.43772413 28.58610715 -66.89419213 27.13598822 -66.3578949 25.68321228 C-64.71614121 21.3734896 -62.70761308 17.77316318 -60 14 C-59.39027344 13.14535156 -58.78054688 12.29070312 -58.15234375 11.41015625 C-45.43767636 -2.82750215 -16.92322646 -11.40625463 0 0 Z " fill="#000000" transform="translate(780,348)"/>
<path d="M0 0 C1.44005834 1.16350734 2.87780873 2.32988107 4.3125 3.5 C5.323125 4.263125 6.33375 5.02625 7.375 5.8125 C24.13368124 21.1449105 32.0118758 42.45514562 33.53125 64.703125 C34.21939723 87.9854395 25.26929286 108.46054174 9.44921875 125.328125 C-5.3682563 140.38939763 -25.33104113 149.50824212 -46.49072266 149.93164062 C-71.66918799 149.97871051 -92.0194882 143.01687342 -110.1171875 125.09375 C-126.6916256 107.45899431 -133.989361 85.42787452 -133.6875 61.5 C-132.48150277 42.97663631 -125.16092532 25.24576015 -112.6875 11.5 C-111.94886719 10.66855469 -111.21023438 9.83710937 -110.44921875 8.98046875 C-82.08523354 -21.24040583 -32.9235242 -25.30893208 0 0 Z " fill="#000000" transform="translate(502.6875,58.5)"/>
<path d="M0 0 C1.3478767 -0.00627488 2.6957517 -0.01292257 4.04362488 -0.01991272 C8.45460836 -0.04085266 12.86559174 -0.0513131 17.27661133 -0.0612793 C18.80507232 -0.06533212 20.33353314 -0.06944919 21.86199379 -0.07362938 C29.0541253 -0.0926675 36.24624671 -0.10689534 43.43839854 -0.11524135 C51.68749416 -0.12497621 59.93631877 -0.1512026 68.18531913 -0.19174224 C74.59336521 -0.22213141 81.00133469 -0.23673199 87.40945131 -0.24002236 C91.22078003 -0.24234911 95.03181894 -0.2509916 98.84306908 -0.27648354 C127.82083304 -0.46001952 156.81550778 1.46132384 178.70141602 22.94580078 C181.061862 25.32259045 183.37570735 27.7373509 185.67114258 30.17700195 C184.67114258 33.17700195 184.67114258 33.17700195 181.86621094 34.69726562 C180.58597402 35.25768508 179.3003561 35.80589546 178.01098633 36.3449707 C177.29946411 36.65261856 176.58794189 36.96026642 175.8548584 37.27723694 C173.44374582 38.31664181 171.02628262 39.34038126 168.60864258 40.36450195 C166.88630438 41.10344573 165.16439147 41.84338146 163.44287109 42.58422852 C159.63231272 44.22157631 155.81882913 45.85186085 152.00317383 47.47729492 C144.01321279 50.88140878 136.03302363 54.30825142 128.05252075 57.73446655 C121.97932495 60.34099032 115.90387939 62.94196867 109.82299805 65.53051758 C99.74873448 69.8229238 89.68603006 74.1180364 79.74145508 78.7043457 C78.33740479 79.3443567 76.93319783 79.98402413 75.52880859 80.62329102 C73.09482728 81.73184376 70.68770055 82.8717598 68.28027344 84.03930664 C66.72771851 84.74748535 66.72771851 84.74748535 65.14379883 85.4699707 C64.29052002 85.87755615 63.43724121 86.2851416 62.55810547 86.70507812 C58.13062396 87.42882627 54.75174645 85.84075285 50.67114258 84.17700195 C49.67923164 83.77326607 49.67923164 83.77326607 48.6672821 83.3613739 C46.67256457 82.51948104 44.69663351 81.64289167 42.72192383 80.75512695 C41.16252968 80.06369047 39.60312141 79.37228585 38.04370117 78.6809082 C37.22246765 78.31497559 36.40123413 77.94904297 35.55511475 77.57202148 C15.40386113 68.59911512 -4.87606296 59.93571298 -25.18310547 51.32250977 C-27.35935135 50.39914322 -29.53554043 49.47564276 -31.71166992 48.55200195 C-32.75875626 48.10757751 -33.80584259 47.66315308 -34.88465881 47.20526123 C-45.7280606 42.59514085 -56.53256721 37.89622587 -67.32885742 33.17700195 C-67.32885742 27.22410581 -64.31870391 24.39677179 -60.32885742 20.17700195 C-43.099546 4.90670845 -22.4334062 0.0481601 0 0 Z " fill="#000000" transform="translate(393.328857421875,222.822998046875)"/>
</svg>
