<?xml version="1.0" encoding="UTF-8"?>
<svg version="1.1" xmlns="http://www.w3.org/2000/svg" width="940" height="788">
<path d="M0 0 C1.98175414 1.50320813 1.98175414 1.50320813 4.36328125 0.625 C7.44211603 -1.02550937 10.45279254 -2.7570813 13.453125 -4.546875 C46.17634346 -23.50095486 83.65069118 -25.67734575 119.8125 -16.26953125 C152.29440796 -7.32672748 178.38710187 9.99326471 197.015625 38.203125 C197.59054687 39.05519531 198.16546875 39.90726563 198.7578125 40.78515625 C216.21330687 68.05371352 220.0614314 103.82486876 213.33984375 134.9453125 C207.20261045 160.56036002 193.68096026 181.89061712 175.49023438 200.67724609 C174.46927711 201.73370022 173.45539355 202.79701917 172.44726562 203.86572266 C160.04873062 217.00120763 146.13765946 227.41760113 130.921875 237.0703125 C113.50998432 248.13258875 96.40535673 259.67003199 80.015625 272.203125 C79.37351074 272.69361328 78.73139648 273.18410156 78.06982422 273.68945312 C65.93414477 283.00266053 54.3084673 292.8847036 43.015625 303.203125 C42.01448526 304.11085617 41.01317547 305.01839981 40.01171875 305.92578125 C28.5318521 316.3508969 18.26555469 327.09638554 9.20703125 339.7421875 C7.37559264 341.98795156 6.07684209 342.19496272 3.203125 342.578125 C-2.90766922 341.85920803 -6.78355422 335.18268089 -10.609375 330.640625 C-21.7012608 317.53391464 -21.7012608 317.53391464 -34.16796875 305.76953125 C-35.98370145 304.20370584 -37.63380204 302.5541038 -39.296875 300.828125 C-42.97267605 297.0941099 -46.98227036 293.84713143 -51.0625 290.56640625 C-53.888844 288.28039272 -56.65457353 285.93502159 -59.421875 283.578125 C-80.59468172 265.91583546 -103.57995333 250.38280586 -126.90625 235.734375 C-139.68040312 227.69383542 -151.10331552 218.63787075 -161.984375 208.203125 C-162.78125732 207.44708984 -162.78125732 207.44708984 -163.59423828 206.67578125 C-171.40962368 199.22946216 -178.38278134 191.42366112 -184.82226562 182.7578125 C-185.82902904 181.41094917 -186.86511014 180.08609507 -187.90625 178.765625 C-207.15523218 153.33577698 -213.28391003 118.68700611 -209.16186523 87.6328125 C-206.0938635 67.73492301 -199.00540423 48.43267703 -186.984375 32.203125 C-186.36949219 31.36523438 -185.75460937 30.52734375 -185.12109375 29.6640625 C-162.90933817 0.6922074 -130.47178394 -14.99268265 -94.70703125 -20.30859375 C-64.91738874 -24.21594455 -23.7084163 -21.46825098 0 0 Z M-19.984375 65.203125 C-19.984375 83.023125 -19.984375 100.843125 -19.984375 119.203125 C-37.474375 119.203125 -54.964375 119.203125 -72.984375 119.203125 C-72.984375 135.043125 -72.984375 150.883125 -72.984375 167.203125 C-55.494375 167.203125 -38.004375 167.203125 -19.984375 167.203125 C-19.984375 185.353125 -19.984375 203.503125 -19.984375 222.203125 C-4.804375 222.203125 10.375625 222.203125 26.015625 222.203125 C26.015625 204.053125 26.015625 185.903125 26.015625 167.203125 C43.505625 167.203125 60.995625 167.203125 79.015625 167.203125 C79.015625 151.363125 79.015625 135.523125 79.015625 119.203125 C61.525625 119.203125 44.035625 119.203125 26.015625 119.203125 C26.015625 101.383125 26.015625 83.563125 26.015625 65.203125 C10.835625 65.203125 -4.344375 65.203125 -19.984375 65.203125 Z " fill="#000000" transform="translate(466.984375,95.796875)"/>
<path d="M0 0 C2.05977726 1.46455645 3.93117581 3.01585549 5.8046875 4.7109375 C6.33835938 5.16726563 6.87203125 5.62359375 7.421875 6.09375 C11.13998903 9.77333435 12.88625456 14.07051481 14.64697266 18.91479492 C14.9062385 19.61833446 15.16550434 20.32187399 15.43262672 21.0467329 C18.26059678 28.81386043 20.76407563 36.67785831 23.203125 44.57421875 C23.44033894 45.34120779 23.67755287 46.10819683 23.92195511 46.89842796 C25.1735445 50.95134343 26.41774762 55.00644912 27.65673828 59.06323242 C28.66811621 62.36942231 29.69464609 65.67030166 30.73486328 68.9675293 C32.01071438 73.01188296 33.25940974 77.06374947 34.49031448 81.12199974 C34.9557017 82.64141893 35.42981279 84.15820111 35.91376877 85.67180824 C39.13964694 95.79405258 40.25780674 104.78248649 39.86270142 115.41081238 C38.99687447 143.04065602 60.29148386 170.60730499 75.8046875 191.7109375 C76.26617187 192.33967773 76.72765625 192.96841797 77.203125 193.61621094 C87.16127526 207.08234595 98.34526334 219.51970686 109.8046875 231.7109375 C110.49691406 232.48050781 111.18914062 233.25007812 111.90234375 234.04296875 C114.64659236 237.00434472 116.20704388 238.51924049 120.1171875 239.7734375 C122.95915405 240.01678812 122.95915405 240.01678812 124.8046875 237.7109375 C125.05294422 233.67676587 124.61033708 231.72529042 122.078125 228.53710938 C119.71700349 226.10298499 117.28416437 223.77434385 114.8046875 221.4609375 C113.04994861 219.76657289 111.29860084 218.0686888 109.55078125 216.3671875 C108.30143799 215.15482422 108.30143799 215.15482422 107.02685547 213.91796875 C102.8888554 209.80815545 99.36353216 205.32673226 95.8046875 200.7109375 C94.90727656 199.62199768 94.00595985 198.53626939 93.1015625 197.453125 C51.23655219 146.9758045 51.23655219 146.9758045 51.3828125 122.2578125 C52.08298873 118.03082264 54.51027494 115.33203946 57.8046875 112.7109375 C66.09462451 109.94762516 76.59075861 110.53777557 84.4296875 114.2734375 C92.49804273 118.63886724 97.83987954 125.76531639 102.9921875 133.1484375 C104.13156147 134.75349296 105.27221237 136.35764265 106.4140625 137.9609375 C106.98189453 138.76015625 107.54972656 139.559375 108.13476562 140.3828125 C110.61793332 143.84472582 113.17403228 147.24933259 115.7421875 150.6484375 C120.19871953 156.55705621 124.60785101 162.49854561 128.9921875 168.4609375 C130.17568009 170.06778285 131.35927109 171.67455571 132.54296875 173.28125 C134.08703993 175.37718944 135.63063478 177.47342871 137.16943359 179.57324219 C139.67186182 182.98662914 142.2108249 186.36648868 144.8046875 189.7109375 C145.39765625 190.48308594 145.990625 191.25523437 146.6015625 192.05078125 C155.75829431 203.18364536 168.90035865 210.50382261 180.95629883 218.08105469 C188.43982504 222.79805263 195.80018096 227.67902927 203.1171875 232.6484375 C204.14827637 233.34598145 205.17936523 234.04352539 206.24169922 234.76220703 C237.79498997 256.28401538 251.73972263 282.10026209 259.12890625 319.0859375 C263.77403787 344.80054545 263.51024915 372.03447094 258.8046875 397.7109375 C258.52262451 399.31171143 258.52262451 399.31171143 258.23486328 400.94482422 C255.54245943 415.94046412 251.91277625 430.58794867 247.6796875 445.2109375 C247.46794891 445.95348785 247.25621033 446.69603821 247.03805542 447.46109009 C246.42966157 449.5799343 245.80408208 451.6928414 245.171875 453.8046875 C244.81206543 455.01833984 244.45225586 456.23199219 244.08154297 457.48242188 C242.64736114 461.10873554 241.69061375 463.06223459 238.8046875 465.7109375 C235.4700312 466.46658898 232.18219324 466.38348357 228.77539062 466.34204102 C227.75710678 466.34919632 226.73882294 466.35635162 225.68968201 466.36372375 C222.32131181 466.38064236 218.95426656 466.36118859 215.5859375 466.33984375 C213.24710988 466.34067215 210.90828232 466.34313044 208.56945801 466.34715271 C203.66673263 466.3500129 198.76446354 466.33528727 193.86181641 466.30786133 C187.57324002 466.27377883 181.28547976 466.27979503 174.99686432 466.2985239 C170.16702457 466.30908574 165.33737515 466.30016336 160.5075531 466.28513908 C158.18868067 466.27995086 155.86978842 466.2804468 153.55091858 466.28668404 C150.31150477 466.29212616 147.07326452 466.2717919 143.83398438 466.24438477 C142.87282211 466.25091064 141.91165985 466.25743652 140.92137146 466.26416016 C134.45095394 466.17093987 134.45095394 466.17093987 131.20246887 463.85871887 C129.28771162 460.91657067 129.36562878 459.16951163 129.8046875 455.7109375 C130.7668457 452.92529297 130.7668457 452.92529297 132.10546875 450.078125 C132.58822266 449.02367187 133.07097656 447.96921875 133.56835938 446.8828125 C134.07947266 445.79484375 134.59058594 444.706875 135.1171875 443.5859375 C141.6380383 429.68600779 146.85777946 415.8924978 142.1796875 400.5859375 C137.09537051 386.89050617 129.13806373 378.17105752 117.1796875 370.1484375 C115.10781052 368.73345706 113.03620063 367.31808545 110.96484375 365.90234375 C109.41047607 364.84684326 109.41047607 364.84684326 107.82470703 363.77001953 C103.3937643 360.74895478 99.0046732 357.66961556 94.6171875 354.5859375 C92.97801698 353.4372825 91.33869436 352.2888445 89.69921875 351.140625 C88.89307129 350.57569336 88.08692383 350.01076172 87.25634766 349.42871094 C83.10682322 346.5213166 78.95566444 343.61625749 74.8046875 340.7109375 C73.13801319 339.54428175 71.47134652 338.37761509 69.8046875 337.2109375 C68.9796875 336.6334375 68.1546875 336.0559375 67.3046875 335.4609375 C64.8046875 333.7109375 62.3046875 331.9609375 59.8046875 330.2109375 C58.9789624 329.6329541 58.1532373 329.0549707 57.30249023 328.45947266 C55.64305594 327.29781999 53.98371284 326.13603705 52.32446289 324.97412109 C48.04789592 321.97964175 43.76956014 318.9877395 39.48828125 316 C35.2949593 313.0728862 31.10616514 310.13943592 26.92236328 307.19873047 C25.62500947 306.28726239 24.32672642 305.37711299 23.02685547 304.46923828 C0.80398936 288.92360037 -13.99185164 269.3147045 -19.06534195 242.41614342 C-19.84340884 237.88642759 -20.48855553 233.33861491 -21.12939453 228.7878418 C-21.37934002 227.08322425 -21.63048005 225.37878149 -21.88272285 223.67450237 C-22.40568073 220.12640234 -22.92115456 216.57733827 -23.43021393 213.02721786 C-24.16584243 207.9005987 -24.92155901 202.77711199 -25.68255615 197.65420532 C-27.22308856 187.26557769 -28.73865599 176.8733776 -30.25 166.48046875 C-30.52304121 164.60381241 -30.79608326 162.7271562 -31.06912613 160.85050011 C-32.20318212 153.05400065 -33.33632025 145.25736877 -34.46688652 137.46036243 C-36.0668636 126.42630093 -37.67274455 115.39313372 -39.28642452 104.36106759 C-40.43475769 96.50709376 -41.57655022 88.65218575 -42.71351063 80.79655761 C-43.38773985 76.13926148 -44.06472446 71.4824077 -44.748806 66.82654762 C-45.3883517 62.4728363 -46.0197353 58.11801678 -46.6450367 53.76223755 C-46.87427119 52.17521779 -47.10636671 50.58860796 -47.34167671 49.00247765 C-49.50995125 34.3660824 -51.28338196 21.00142248 -43.0078125 7.8984375 C-32.86389299 -5.03738646 -14.01413908 -8.22894287 0 0 Z " fill="#000000" transform="translate(178.1953125,266.2890625)"/>
<path d="M0 0 C7.98846768 6.4587611 13.17240496 13.16808211 14.9375 23.375 C15.76938717 33.35320127 13.86529341 43.29376222 12.41479492 53.13085938 C12.14313944 55.01286401 11.87216714 56.89496735 11.6018219 58.77716064 C10.86898226 63.86543392 10.1265505 68.95226537 9.38228011 74.03887749 C8.60146746 79.38633374 7.82935757 84.73504663 7.05622864 90.08361816 C5.75572762 99.07211757 4.4495813 108.05978109 3.1394043 117.046875 C1.30009657 129.66358142 -0.52899768 142.28175258 -2.35603487 154.9002409 C-3.78353626 164.75670023 -5.21379418 174.61275991 -6.64453125 184.46875 C-6.79625612 185.5141136 -6.947981 186.5594772 -7.1043036 187.63651848 C-7.98256359 193.68634894 -8.86225355 199.73596863 -9.74393654 205.78530121 C-10.00913894 207.6059129 -10.27397066 209.42657863 -10.53837204 211.24730682 C-11.36793771 216.95832767 -12.20941759 222.66744568 -13.0625 228.375 C-13.18844221 229.22351595 -13.31438442 230.0720319 -13.44414306 230.94626045 C-13.8263799 233.50758116 -14.21599257 236.06767757 -14.60771179 238.62756348 C-14.72125277 239.39271444 -14.83479375 240.1578654 -14.95177537 240.94620275 C-18.45357774 263.51170374 -30.71775822 284.80597625 -49.12109375 298.515625 C-50.57564408 299.55920766 -52.03549455 300.59543445 -53.5 301.625 C-54.28713379 302.18582275 -55.07426758 302.74664551 -55.88525391 303.32446289 C-62.1705261 307.78752372 -68.51747436 312.16004877 -74.8828125 316.5078125 C-79.54988781 319.70036904 -84.18224956 322.94185102 -88.8125 326.1875 C-89.65280762 326.776521 -90.49311523 327.36554199 -91.35888672 327.97241211 C-93.07206009 329.17365703 -94.78511286 330.37507396 -96.49804688 331.57666016 C-100.68423125 334.51224984 -104.87349592 337.44343609 -109.0625 340.375 C-110.72918197 341.54164481 -112.39584862 342.7083115 -114.0625 343.875 C-124.0625 350.875 -124.0625 350.875 -126.56567383 352.62695312 C-128.22209803 353.78662823 -129.87818873 354.94677983 -131.53393555 356.10742188 C-135.85461339 359.13517445 -140.18182844 362.15292849 -144.51953125 365.15625 C-145.8643457 366.09017578 -145.8643457 366.09017578 -147.23632812 367.04296875 C-148.93990461 368.22576279 -150.64549495 369.40566398 -152.35351562 370.58203125 C-164.98003077 379.36296045 -174.02488852 389.40908792 -177.64453125 404.859375 C-180.22501145 420.39048945 -174.0988639 434.14936073 -167.41650391 447.78637695 C-163.09374594 456.77341822 -163.09374594 456.77341822 -164.0625 461.375 C-165.46984863 463.50401306 -165.46984863 463.50401306 -168.0625 465.375 C-171.39953127 465.98744469 -174.70687059 465.93142946 -178.09179688 465.90844727 C-179.11008072 465.91706284 -180.12836456 465.92567841 -181.17750549 465.93455505 C-184.54567839 465.95727027 -187.91302309 465.95046601 -191.28125 465.94140625 C-193.62007902 465.94663913 -195.95890593 465.95291437 -198.29772949 465.96018982 C-203.20037769 465.97060417 -208.10273581 465.96601713 -213.00537109 465.95141602 C-219.29402679 465.93422194 -225.58176939 465.95772677 -231.87032318 465.99290562 C-236.70015541 466.01484458 -241.52976794 466.01344664 -246.3596344 466.0051403 C-248.67852276 466.00431897 -250.99742697 466.01121701 -253.31626892 466.02591133 C-256.55582156 466.04329295 -259.79371777 466.02886682 -263.03320312 466.00610352 C-263.99436539 466.01779572 -264.95552765 466.02948792 -265.94581604 466.04153442 C-272.43897492 465.94850477 -272.43897492 465.94850477 -275.61051941 463.03138733 C-277.28936758 459.95994751 -278.38574274 457.03465088 -279.39453125 453.6796875 C-279.69081673 452.70069237 -279.69081673 452.70069237 -279.99308777 451.70191956 C-280.63540715 449.55538846 -281.25698646 447.40364672 -281.875 445.25 C-282.1992395 444.13735275 -282.1992395 444.13735275 -282.5300293 443.00222778 C-285.90148245 431.37757023 -288.69939616 419.68166309 -291.0625 407.8125 C-291.20402496 407.1077655 -291.34554993 406.40303101 -291.49136353 405.67694092 C-294.67007862 389.66929619 -296.48484453 373.82814414 -296.4375 357.5 C-296.43662384 356.7489801 -296.43574768 355.99796021 -296.43484497 355.22418213 C-296.32765192 327.05800364 -291.81283026 297.33045266 -278.0625 272.375 C-277.28326172 270.94414063 -277.28326172 270.94414063 -276.48828125 269.484375 C-273.30047542 264.08131427 -269.51254677 259.38160006 -265.3125 254.75 C-264.85979736 254.24774902 -264.40709473 253.74549805 -263.94067383 253.22802734 C-255.78059308 244.54090352 -246.06002953 237.81761933 -236.0625 231.4375 C-234.36321611 230.34028967 -232.66580407 229.24022041 -230.96839905 228.1401062 C-229.79563025 227.38022149 -228.62239896 226.6210501 -227.44871521 225.86257935 C-221.39698231 221.95154295 -215.36963507 218.00438443 -209.36303711 214.02438354 C-207.68197346 212.91267719 -205.99633503 211.80789814 -204.31054688 210.70336914 C-188.47822794 200.20558922 -177.48842359 188.43584178 -166.6796875 173.05859375 C-163.96540774 169.21113815 -161.14844633 165.44579236 -158.3125 161.6875 C-153.79397261 155.69514026 -149.32142304 149.67105814 -144.875 143.625 C-143.98482178 142.41855835 -143.98482178 142.41855835 -143.07666016 141.18774414 C-140.51889913 137.72097665 -137.9673984 134.25127555 -135.45703125 130.75 C-129.34470981 122.33372263 -122.64644414 113.88999663 -112.0625 111.375 C-109.29821462 111.13247048 -106.64000899 110.96995168 -103.875 110.9375 C-103.19759766 110.92726807 -102.52019531 110.91703613 -101.82226562 110.90649414 C-96.01542249 111.00835608 -92.04026316 112.65746883 -87.6875 116.4375 C-84.96041989 121.36722173 -85.25902749 126.18374297 -86.6171875 131.578125 C-87.60677632 134.27357646 -88.79766864 136.79567113 -90.0625 139.375 C-90.36381836 140.0045459 -90.66513672 140.6340918 -90.97558594 141.28271484 C-100.31377649 160.60945024 -112.4597922 178.78467585 -126.0625 195.375 C-126.48805176 195.89529785 -126.91360352 196.4155957 -127.35205078 196.95166016 C-132.45722802 203.16609209 -137.74416022 209.20490292 -143.1875 215.125 C-143.68596436 215.66721191 -144.18442871 216.20942383 -144.69799805 216.76806641 C-147.76428379 220.06866979 -150.95787844 223.17178808 -154.25 226.25 C-156.87533988 228.83253543 -158.58676335 230.64208806 -159.25 234.3125 C-159.39528733 237.48392859 -159.39528733 237.48392859 -157.0625 239.375 C-152.72524741 239.48327209 -150.48881751 238.14202353 -147.44140625 235.27734375 C-146.15550913 233.96911509 -144.88387339 232.64675313 -143.625 231.3125 C-142.95758789 230.62365723 -142.29017578 229.93481445 -141.60253906 229.22509766 C-137.27323885 224.73108426 -133.06380669 220.16374919 -129.0625 215.375 C-127.89267578 214.03888672 -127.89267578 214.03888672 -126.69921875 212.67578125 C-104.4778389 187.17651138 -74.23001394 149.88795525 -74.0625 114.375 C-74.25282303 113.31880463 -74.25282303 113.31880463 -74.44699097 112.24127197 C-75.96054956 103.00426961 -73.08800988 95.09652824 -70.3046875 86.421875 C-69.79786192 84.7925431 -69.2927777 83.16266861 -68.78933716 81.5322876 C-67.46423535 77.25808696 -66.11503766 72.99187364 -64.76068115 68.72686768 C-63.40064988 64.42815239 -62.06500335 60.12188151 -60.7265625 55.81640625 C-58.08938362 47.35352154 -55.44126052 38.89433828 -52.73000336 30.45484924 C-52.27900879 29.04961179 -51.82998717 27.64373984 -51.38278961 26.23728943 C-50.7267707 24.17847009 -50.06211675 22.12263548 -49.39501953 20.06738281 C-49.0144339 18.88589661 -48.63384827 17.7044104 -48.24172974 16.48712158 C-45.13053872 8.27633414 -38.47439005 1.188689 -30.4375 -2.4375 C-19.72876211 -6.20538926 -9.98236823 -5.29676682 0 0 Z " fill="#000000" transform="translate(796.0625,266.625)"/>
</svg>
