<?xml version="1.0" encoding="UTF-8"?>
<svg version="1.1" xmlns="http://www.w3.org/2000/svg" width="1175" height="985">
<path d="M0 0 C4.38853796 4.14976197 8.01843049 8.71116916 11.6875 13.5 C12.30399414 14.29881592 12.92048828 15.09763184 13.55566406 15.9206543 C15.37376637 18.27790005 17.18724486 20.63864115 19 23 C19.92807417 24.20466693 20.85642704 25.40911925 21.78515625 26.61328125 C24.19440303 29.73889175 26.59731162 32.86934478 29 36 C30.66609253 38.16710847 32.33305199 40.33354953 34 42.5 C34.83334905 43.58332124 35.66668241 44.66665456 36.5 45.75 C36.9125 46.28625 37.325 46.8225 37.75 47.375 C71.5 91.25 71.5 91.25 72.75097656 92.87646484 C73.5808028 93.95510919 74.41087923 95.03356111 75.24121094 96.11181641 C77.82021729 99.46168837 80.38892648 102.81918997 82.95214844 106.18115234 C84.22002262 107.83587603 85.4991579 109.48127924 86.78125 111.125 C88.04648229 112.76445592 89.29127591 114.42142046 90.46875 116.125 C95.61643327 123.15598203 105.54474715 127.68039351 114 129 C116.21443732 129.09339839 118.43130886 129.13523411 120.64770508 129.1418457 C121.2957309 129.14532013 121.94375671 129.14879456 122.61141968 129.15237427 C124.01364608 129.15970047 125.41588385 129.16506247 126.81812477 129.16866493 C129.05354017 129.17589119 131.28874366 129.19160818 133.52409363 129.21000671 C139.87857935 129.26214891 146.23295203 129.31028701 152.58764648 129.32592773 C156.48404517 129.33614233 160.379912 129.36580651 164.27609825 129.40724754 C165.74489969 129.41938177 167.2137769 129.4247118 168.68262672 129.42244911 C183.83817538 129.40486748 196.98358699 132.65757792 210.8984375 138.7890625 C211.96172272 139.24591934 213.02500793 139.70277618 214.12051392 140.17347717 C216.38001273 141.14614791 218.63717746 142.1242569 220.89208984 143.10751343 C224.43165062 144.64968239 227.97842738 146.17407602 231.52734375 147.69458008 C241.92743286 152.15880899 252.30458265 156.66983596 262.6312561 161.30157471 C266.50845571 163.03841219 270.39364683 164.7569191 274.27960205 166.47406006 C276.95594624 167.66784972 279.61694137 168.89202241 282.27880859 170.11767578 C283.89351857 170.83390794 285.50887718 171.54868028 287.125 172.26171875 C287.84128571 172.60308365 288.55757141 172.94444855 289.29556274 173.29615784 C291.53972516 174.33400568 291.53972516 174.33400568 295 175 C298.38646032 173.42139152 298.38646032 173.42139152 301 171 C301.78761719 170.42378906 302.57523438 169.84757813 303.38671875 169.25390625 C304.91088415 168.13342472 306.43177374 167.0084724 307.94921875 165.87890625 C316.91148251 160.35925341 326.59781439 157.46041842 336.6953125 154.75 C338.0964139 154.36640872 339.497278 153.98194976 340.8979187 153.59667969 C344.56177519 152.5911083 348.22844311 151.59622222 351.89593506 150.60400391 C355.57801259 149.60628097 359.25775027 148.60001826 362.9375 147.59375 C363.65380301 147.39792045 364.37010603 147.20209089 365.1081152 147.00032711 C366.53665048 146.60972328 367.96516548 146.21904528 369.39365959 145.82829094 C370.79933234 145.44379282 372.20503921 145.05941944 373.61078072 144.67517281 C385.41625602 141.45239921 385.41625602 141.45239921 397.19140625 138.12109375 C398.40513916 137.77232178 399.61887207 137.4235498 400.86938477 137.06420898 C412.69026747 133.04586478 419.48374345 124.40663634 427 115 C428.51965589 113.14486819 430.04039131 111.29061985 431.5625 109.4375 C432.27792969 108.55707031 432.99335937 107.67664063 433.73046875 106.76953125 C438.54688939 100.89200589 443.494943 95.12388086 448.41601562 89.33398438 C453.1351961 83.77931966 457.84075049 78.21940075 462.4375 72.5625 C466.39508188 67.69870975 470.46542446 62.94118769 474.55834961 58.19165039 C477.58945289 54.66701081 480.56985316 51.10960118 483.5 47.5 C487.4337857 42.65403211 491.48447759 37.91901472 495.55859375 33.19140625 C499.32445245 28.81227794 502.99074486 24.36095313 506.62890625 19.875 C510.02671013 15.75509282 513.51539529 11.71470233 517.015625 7.68164062 C519.17059009 5.18836307 521.16932165 2.74601752 523 0 C525.89631874 1.30016516 527.85194306 2.63510423 529.98828125 4.9765625 C530.52590088 5.56050781 531.06352051 6.14445312 531.61743164 6.74609375 C532.45649048 7.67615234 532.45649048 7.67615234 533.3125 8.625 C533.89572021 9.26308594 534.47894043 9.90117188 535.07983398 10.55859375 C540.05227738 16.0136301 544.91590731 21.55062316 549.69921875 27.171875 C555.53018213 34.01518479 561.45408334 40.73983217 567.5546875 47.34375 C571.71504527 51.86298847 575.72685535 56.50178609 579.70703125 61.1796875 C584.61125518 66.93678512 589.53926215 72.64646124 594.6875 78.1875 C598.05583447 81.81283208 601.2792202 85.51232393 604.375 89.375 C608.98571639 95.10522487 613.97756638 100.43085078 619.00390625 105.79296875 C623.38116714 110.4639332 627.5514289 115.29747541 631.69921875 120.171875 C632.71601259 121.36469693 633.73294393 122.55740165 634.75 123.75 C635.25901855 124.3486084 635.76803711 124.9472168 636.29248047 125.56396484 C638.8669801 128.57495735 641.4742961 131.5389898 644.18359375 134.4296875 C644.9410791 135.23841309 644.9410791 135.23841309 645.71386719 136.06347656 C647.10830191 137.54107836 648.51284444 139.00912223 649.91796875 140.4765625 C651.93012032 142.9153053 652.40257483 144.02430999 653 147 C652.55309814 147.34144043 652.10619629 147.68288086 651.64575195 148.03466797 C644.25680216 153.6806465 636.86792825 159.32660163 629.5 165 C624.5079922 168.84384601 619.50603093 172.67443778 614.5 176.5 C607.3221672 181.98559563 600.15754939 187.48796762 593 193 C590.83355349 194.66695292 588.66677503 196.33347413 586.5 198 C585.41666062 198.83332547 584.33332728 199.6666588 583.25 200.5 C563.75 215.5 563.75 215.5 562.12402344 216.75048828 C561.04360617 217.5817534 559.96352644 218.41345742 558.88378906 219.24560547 C556.1334791 221.36435663 553.37724935 223.47454542 550.609375 225.5703125 C537.71828261 235.3485414 527.36944034 243.43382083 524 260 C523.64842202 264.52430654 523.59948583 269.02808662 523.61987495 273.56253624 C523.62912535 275.81507045 523.61860402 278.06679642 523.60325623 280.31929016 C523.56355112 286.71634912 523.5619379 293.11333611 523.56420898 299.51049805 C523.56426068 303.44501312 523.54480045 307.37909144 523.51487541 311.3134861 C523.50424638 313.50411877 523.51606179 315.6938443 523.52870178 317.88444519 C523.49641186 331.88938874 519.78649533 344.08120504 514.17578125 356.87109375 C513.48659859 358.47641464 513.48659859 358.47641464 512.78349304 360.11416626 C511.80559835 362.38846365 510.82307497 364.6607758 509.83618164 366.93118286 C508.29019219 370.48883504 506.75772669 374.05204995 505.22851562 377.61694336 C500.82520417 387.87203422 496.38882259 398.11262615 491.93388367 408.34538269 C490.32205197 412.05364668 488.71960039 415.76591621 487.11898804 419.47903442 C486.01984634 422.01667972 484.90546516 424.54725276 483.7902832 427.07788086 C483.13025248 428.60497356 482.47094511 430.1323792 481.8125 431.66015625 C481.50849777 432.33785065 481.20449554 433.01554504 480.89128113 433.71377563 C479.27315042 437.5202195 478.51480398 440.06102072 480 444 C480.845625 444.928125 481.69125 445.85625 482.5625 446.8125 C491.95374796 457.27851477 495.80580012 471.7264629 499.3125 485 C499.77124658 486.68104825 500.23173601 488.36162172 500.69384766 490.04174805 C502.15029659 495.35557252 503.57689616 500.67716468 505 506 C506.71405006 512.40001554 508.43533446 518.797972 510.16928101 525.19262695 C510.85859743 527.75160799 511.53405361 530.31395433 512.20825195 532.87695312 C516.30085086 548.20535945 521.35026279 558.47030425 533.90625 568.51171875 C537.15168202 571.12199677 540.33032882 573.79891752 543.5 576.5 C547.46855349 579.87338705 551.46018736 583.21178041 555.5 586.5 C562.30413786 592.04192098 568.97975878 597.73308923 575.66601562 603.41601562 C582.12406926 608.90270514 588.61497616 614.33777129 595.1875 619.6875 C598.88014364 622.72367366 602.52121788 625.8184997 606.1640625 628.9140625 C609.5805954 631.81244823 613.02504838 634.671551 616.5 637.5 C621.10089175 641.24491189 625.63351633 645.06321371 630.15307617 648.90527344 C633.67453158 651.89355627 637.22919539 654.83577717 640.8125 657.75 C645.29904235 661.40107186 649.68165963 665.15185142 654 669 C648.69408348 676.31356061 642.87441175 683.1430354 637 690 C631.40666397 685.94208955 626.1290028 681.60959914 620.87939453 677.12451172 C616.35977762 673.27417376 611.7341763 669.58427301 607 666 C601.44846443 670.62432301 596.31467404 675.5485616 591.21899414 680.66748047 C589.9446199 681.94163567 589.9446199 681.94163567 588.64450073 683.24153137 C586.33532265 685.55128322 584.02836598 687.86322545 581.72241139 690.17619467 C579.30457651 692.60031731 576.8838743 695.02157336 574.46348572 697.44314575 C569.88950503 702.02022386 565.31807756 706.59984313 560.74758095 711.18040001 C555.54031816 716.39887351 550.33018638 721.61447862 545.11982167 726.82985473 C534.41003801 737.55006675 523.70383001 748.27384317 513 759 C514.33354082 762.48198724 515.61545659 765.03340158 518.07421875 767.84765625 C518.65880859 768.53537109 519.24339844 769.22308594 519.84570312 769.93164062 C521.08051833 771.36025504 522.32016871 772.78470351 523.56445312 774.20507812 C524.14517578 774.89150391 524.72589844 775.57792969 525.32421875 776.28515625 C525.86135498 776.90269775 526.39849121 777.52023926 526.9519043 778.15649414 C528 780 528 780 527.9128418 782.01635742 C526.73029547 784.58607897 525.30327471 785.72256696 523.0703125 787.453125 C522.27496094 788.071875 521.47960937 788.690625 520.66015625 789.328125 C519.82355469 789.96234375 518.98695313 790.5965625 518.125 791.25 C517.29613281 791.8996875 516.46726562 792.549375 515.61328125 793.21875 C509.39564732 798 509.39564732 798 506 798 C504.09750258 795.75131545 502.3898655 793.51938626 500.6875 791.125 C499.61231426 789.65114802 498.53542407 788.17853828 497.45703125 786.70703125 C496.89322754 785.93439941 496.32942383 785.16176758 495.74853516 784.36572266 C492.86142451 780.45953693 489.86875373 776.63719316 486.875 772.8125 C485.68992531 771.29441044 484.50502629 769.77618373 483.3203125 768.2578125 C482.47388184 767.1735498 482.47388184 767.1735498 481.61035156 766.06738281 C477.71397669 761.06518414 473.86037495 756.02999186 470 751 C468.33390747 748.83289153 466.66694801 746.66645047 465 744.5 C464.16665095 743.41667876 463.33331759 742.33334544 462.5 741.25 C462.0875 740.71375 461.675 740.1775 461.25 739.625 C437.5 708.75 437.5 708.75 436.24951172 707.12402344 C435.4182466 706.04360617 434.58654258 704.96352644 433.75439453 703.88378906 C431.63564337 701.1334791 429.52545458 698.37724935 427.4296875 695.609375 C413.66088155 677.36325598 413.66088155 677.36325598 393 669 C388.32640222 668.66170537 383.67429112 668.61940747 378.99190712 668.65044022 C376.68021478 668.66441349 374.36935887 668.65760415 372.05766296 668.64559937 C365.49321605 668.61497358 358.92897539 668.61936719 352.36450195 668.63964844 C348.32503395 668.65070021 344.28619745 668.63709723 340.24681664 668.60975266 C338.72773808 668.60439234 337.20859311 668.60816537 335.68956947 668.62215042 C319.81412501 668.76659366 306.87462544 664.11931522 292.41796875 657.7890625 C291.29097061 657.30331253 290.16397247 656.81756256 289.00282288 656.3170929 C286.6178239 655.28792234 284.23437292 654.25515767 281.85241699 653.21896362 C278.13837728 651.60363531 274.41999901 649.99871764 270.70019531 648.39672852 C260.55590473 644.02468803 250.42208892 639.62885907 240.30464172 635.19500732 C237.0298858 633.76112922 233.75195623 632.3346072 230.47354126 630.90911865 C228.2962189 629.95769623 226.1250217 628.99320614 223.95385742 628.02783203 C222.66221952 627.46454307 221.37032663 626.90183829 220.078125 626.33984375 C218.44472168 625.61849243 218.44472168 625.61849243 216.77832031 624.88256836 C213.87971329 623.96178942 212.75282412 623.82075628 210 625 C207.09514822 627.08907617 204.34040916 629.3285158 201.55859375 631.578125 C192.69444504 638.01941514 181.96901736 640.68673074 171.5625 643.5625 C170.05765896 643.98658725 168.55302564 644.41141217 167.04858398 644.83691406 C159.15479187 647.05956177 151.2429961 649.21086104 143.31703186 651.31578064 C140.3477861 652.10439678 137.37975317 652.89745291 134.41186523 653.69116211 C130.58712468 654.71400388 126.758242 655.71871766 122.92602539 656.71313477 C104.4039098 661.59830089 93.52731186 667.95102728 81.41015625 683.01953125 C78.85768867 686.1759863 76.25249609 689.28107351 73.625 692.375 C73.16520752 692.91713135 72.70541504 693.4592627 72.23168945 694.01782227 C70.35034252 696.23492532 68.46710881 698.45042232 66.58398438 700.66601562 C61.8648039 706.22068034 57.15924951 711.78059925 52.5625 717.4375 C48.60491812 722.30129025 44.53457554 727.05881231 40.44165039 731.80834961 C37.41054711 735.33298919 34.43014684 738.89039882 31.5 742.5 C27.5662143 747.34596789 23.51552241 752.08098528 19.44140625 756.80859375 C16.41041716 760.33317903 13.43007419 763.89048832 10.5 767.5 C6.57393886 772.33645213 2.53761966 777.06822999 -1.53881836 781.77783203 C-3.96632269 784.59100733 -6.35710554 787.41960737 -8.66015625 790.3359375 C-9.45292969 791.33882812 -10.24570312 792.34171875 -11.0625 793.375 C-11.75472656 794.26960937 -12.44695312 795.16421875 -13.16015625 796.0859375 C-13.76730469 796.71757813 -14.37445313 797.34921875 -15 798 C-18 798 -18 798 -20.6015625 795.54296875 C-21.61853043 794.43279705 -22.62576636 793.31366034 -23.625 792.1875 C-24.16133057 791.59509521 -24.69766113 791.00269043 -25.25024414 790.39233398 C-29.18628326 786.01001861 -32.90469727 781.47363516 -36.58984375 776.87890625 C-39.97407653 772.83647585 -43.58965623 769.02866183 -47.20288086 765.19165039 C-50.44563261 761.72921156 -53.53436781 758.20704024 -56.5 754.5 C-61.06041926 748.80368295 -66.01734663 743.52680934 -71.00390625 738.20703125 C-75.38116714 733.5360668 -79.5514289 728.70252459 -83.69921875 723.828125 C-84.71581756 722.63513685 -85.73275588 721.44243795 -86.75 720.25 C-87.26481934 719.64631592 -87.77963867 719.04263184 -88.31005859 718.4206543 C-91.6910199 714.47514717 -95.15102043 710.61880634 -98.6875 706.8125 C-102.05583447 703.18716792 -105.2792202 699.48767607 -108.375 695.625 C-111.90717792 691.23193284 -115.63897509 687.10084702 -119.5 683 C-124.15430288 678.05626876 -128.54318883 672.99089611 -132.7890625 667.6875 C-136.6771157 662.96138586 -140.84149493 658.48840735 -145 654 C-143.64629844 650.8575237 -142.28065344 649.15183277 -139.54296875 647.1171875 C-138.84913086 646.59487549 -138.15529297 646.07256348 -137.44042969 645.53442383 C-136.69696289 644.98681396 -135.95349609 644.4392041 -135.1875 643.875 C-133.63395832 642.70984374 -132.08057434 641.54447718 -130.52734375 640.37890625 C-129.7576123 639.80543457 -128.98788086 639.23196289 -128.19482422 638.64111328 C-125.19015716 636.39446456 -122.21814086 634.10704971 -119.25 631.8125 C-118.21359375 631.01457031 -117.1771875 630.21664062 -116.109375 629.39453125 C-115.08328125 628.60433594 -114.0571875 627.81414063 -113 627 C-110.83355349 625.33304708 -108.66677503 623.66652587 -106.5 622 C-105.41666062 621.16667453 -104.33332728 620.3333412 -103.25 619.5 C-96.75 614.5 -90.25 609.5 -83.75 604.5 C-83.21407227 604.0877417 -82.67814453 603.6754834 -82.12597656 603.25073242 C-81.03941221 602.41492624 -79.95282355 601.57915165 -78.86621094 600.7434082 C-76.20711452 598.69816364 -73.5485006 596.65230009 -70.890625 594.60546875 C-65.49749741 590.45329713 -60.09913864 586.30818844 -54.69140625 582.17504883 C-53.23532678 581.06206295 -51.77959513 579.9486219 -50.32421875 578.8347168 C-46.95624025 576.25715884 -43.5853013 573.68390683 -40.203125 571.125 C-39.05208057 570.25000363 -37.90103875 569.37500384 -36.75 568.5 C-35.75484375 567.7471875 -34.7596875 566.994375 -33.734375 566.21875 C-24.36456394 558.6158176 -17.9588549 550.06554219 -16 538 C-15.90660161 535.78556268 -15.86476589 533.56869114 -15.8581543 531.35229492 C-15.85467987 530.7042691 -15.85120544 530.05624329 -15.84762573 529.38858032 C-15.84029953 527.98635392 -15.83493753 526.58411615 -15.83133507 525.18187523 C-15.82410881 522.94645983 -15.80839182 520.71125634 -15.78999329 518.47590637 C-15.73785109 512.12142065 -15.68971299 505.76704797 -15.67407227 499.41235352 C-15.66385767 495.51595483 -15.63419349 491.620088 -15.59275246 487.72390175 C-15.58061823 486.25510031 -15.5752882 484.7862231 -15.57755089 483.31737328 C-15.59545032 467.88788567 -12.1856917 454.64283127 -5.921875 440.48828125 C-5.43744431 439.36679687 -4.95301361 438.2453125 -4.4539032 437.08984375 C-3.42528201 434.7131566 -2.3910636 432.33888483 -1.35153198 429.96694946 C0.27194515 426.26242456 1.88001846 422.55155445 3.48413086 418.83862305 C7.93644564 408.54530343 12.43057253 398.27051091 16.96762085 388.01423645 C18.49055718 384.56919359 20.00551092 381.12066742 21.5201416 377.67196655 C22.54122932 375.36064799 23.5780093 373.05684465 24.61621094 370.75317383 C25.22525659 369.37349516 25.83369666 367.99354894 26.44140625 366.61328125 C26.96420166 365.44579346 27.48699707 364.27830566 28.02563477 363.07543945 C29.07113041 359.77548741 29.11606973 358.23754773 28 355 C25.94938987 352.04271515 23.69717711 349.31030082 21.421875 346.5234375 C15.10092749 337.93818414 12.47123125 327.44246815 9.75 317.3046875 C9.36640872 315.9035861 8.98194976 314.502722 8.59667969 313.1020813 C7.5911083 309.43822481 6.59622222 305.77155689 5.60400391 302.10406494 C4.60628098 298.42198743 3.60002435 294.74224805 2.59375 291.0625 C2.39790345 290.34617716 2.2020569 289.62985432 2.00027561 288.89182472 C1.60964865 287.46327105 1.21895343 286.03473603 0.82818794 284.60622025 C0.44379192 283.20075031 0.0595784 281.79523044 -0.32444954 280.38965988 C-3.55280879 268.5684934 -3.55280879 268.5684934 -6.90234375 256.78125 C-7.25546631 255.56244141 -7.60858887 254.34363281 -7.97241211 253.08789062 C-12.5409706 239.3594212 -24.2256453 231.12660559 -35.0859375 222.37890625 C-38.43982202 219.64094958 -41.7219289 216.82783535 -45 214 C-49.12447802 210.44524127 -53.27208697 206.93207058 -57.5 203.5 C-62.34596789 199.5662143 -67.08098528 195.51552241 -71.80859375 191.44140625 C-75.33317903 188.41041716 -78.89048832 185.43007419 -82.5 182.5 C-87.34596789 178.5662143 -92.08098528 174.51552241 -96.80859375 170.44140625 C-100.33317903 167.41041716 -103.89048832 164.43007419 -107.5 161.5 C-112.34151899 157.56982576 -117.07262391 153.52333927 -121.79541016 149.45239258 C-126.30586533 145.5729048 -130.89279935 141.79675327 -135.51171875 138.046875 C-139.07952273 135.11197816 -142.55120297 132.07328331 -146 129 C-140.98338808 122.06647133 -135.51369211 115.53797484 -130 109 C-126.89766669 109.58687103 -125.13103016 110.45625952 -122.78515625 112.5546875 C-121.88941895 113.34504395 -121.88941895 113.34504395 -120.97558594 114.15136719 C-120.34426758 114.72016602 -119.71294922 115.28896484 -119.0625 115.875 C-117.71542355 117.06576041 -116.36775693 118.25585346 -115.01953125 119.4453125 C-114.34486816 120.04375977 -113.67020508 120.64220703 -112.97509766 121.25878906 C-110.09897332 123.79432908 -107.18044863 126.27762817 -104.25 128.75 C-103.72067871 129.19746582 -103.19135742 129.64493164 -102.64599609 130.10595703 C-98.31185003 133.75950149 -93.92002246 137.34010269 -89.5234375 140.91796875 C-85.94731053 143.86855029 -82.46107284 146.9157775 -79 150 C-75.81036694 148.59186573 -73.6719266 146.91953332 -71.21612549 144.45663452 C-70.47859543 143.72185379 -69.74106537 142.98707306 -68.98118591 142.23002625 C-68.18205276 141.42370255 -67.38291962 140.61737885 -66.55957031 139.78662109 C-65.71042557 138.9377684 -64.86128082 138.08891571 -63.98640442 137.21434021 C-61.66282881 134.88961079 -59.34374874 132.56050655 -57.02659321 130.22938108 C-54.60250865 127.79278611 -52.17275152 125.36186129 -49.74359131 122.93032837 C-45.14625257 118.32677578 -40.55403547 113.71814913 -35.96363807 109.10767615 C-30.73664207 103.8583182 -25.50395957 98.61464448 -20.27079248 93.3714397 C-9.50752327 82.58727064 1.24858507 71.79598816 12 61 C11.05641647 59.57166301 10.11108791 58.14447873 9.16503906 56.71777344 C8.63879944 55.92288513 8.11255981 55.12799683 7.57037354 54.309021 C5.43634005 51.17121459 3.12586834 48.20631368 0.75 45.25 C-0.20751052 44.04334891 -1.16453033 42.83630829 -2.12109375 41.62890625 C-2.83821533 40.72615967 -2.83821533 40.72615967 -3.56982422 39.80517578 C-9.6910544 32.07892519 -15.70636406 24.32779312 -21 16 C-18.81405921 14.26883192 -16.62630663 12.54003837 -14.4375 10.8125 C-13.82841797 10.32974609 -13.21933594 9.84699219 -12.59179688 9.34960938 C-8.47732709 6.10592685 -4.28428051 3.01608937 0 0 Z M83 146 C73.05841903 155.82487245 63.13127587 165.66412943 53.22067928 175.52025986 C48.61876821 180.09603496 44.01230417 184.66702627 39.39526367 189.22753906 C34.94292686 193.62570139 30.50277926 198.03583039 26.07095528 202.45465851 C24.37475011 204.14159778 22.67413772 205.82411714 20.96916008 207.50218964 C18.58876593 209.8464901 16.22427871 212.20576812 13.86303711 214.56933594 C13.14878571 215.26561096 12.4345343 215.96188599 11.69863892 216.67926025 C10.74148735 217.6467218 10.74148735 217.6467218 9.76499939 218.63372803 C9.20362746 219.19049099 8.64225554 219.74725395 8.06387234 220.32088852 C6.76987366 221.96936641 6.76987366 221.96936641 7.26371098 224.10077286 C8.05477668 226.14129418 9.01675709 227.75556497 10.25 229.5625 C16.83797026 239.86278202 19.88926897 250.98363658 22.9765625 262.671875 C23.43208044 264.36600524 23.8885909 266.05986888 24.34603882 267.753479 C25.53975707 272.18073167 26.72310006 276.61068096 27.90325928 281.04156494 C29.79642079 288.14592369 31.70158742 295.24703437 33.61423874 302.34616852 C34.27650046 304.81259093 34.93186744 307.28077073 35.58657837 309.74920654 C35.99448102 311.27004581 36.40262081 312.7908215 36.81103516 314.31152344 C36.98875961 314.98908188 37.16648407 315.66664032 37.34959412 316.36473083 C38.54690767 320.79005035 40.11931894 324.8342845 42 329 C42.8353125 328.566875 42.8353125 328.566875 43.6875 328.125 C44.8321875 327.568125 44.8321875 327.568125 46 327 C46.70640625 326.65453125 47.4128125 326.3090625 48.140625 325.953125 C58.1956064 322.60146453 70.63416022 324.60493575 80 329 C82.80398734 330.53935853 85.36452852 332.17544282 88 334 C88.81984375 333.08476562 89.6396875 332.16953125 90.484375 331.2265625 C91.57260392 330.02575817 92.66116295 328.82525294 93.75 327.625 C94.28882813 327.02171875 94.82765625 326.4184375 95.3828125 325.796875 C95.91132813 325.21679688 96.43984375 324.63671875 96.984375 324.0390625 C97.70705566 323.23782959 97.70705566 323.23782959 98.44433594 322.42041016 C100 321 100 321 104 319 C116.87 331.87 129.74 344.74 143 358 C147.50789276 354.13609192 151.79767029 350.33926648 155.9375 346.125 C156.43056641 345.62742187 156.92363281 345.12984375 157.43164062 344.6171875 C158.62345992 343.41379715 159.81208678 342.20724635 161 341 C159.58098338 337.77254476 157.87144235 335.62741893 155.37646484 333.14941406 C154.63584808 332.40894836 153.89523132 331.66848267 153.13217163 330.90557861 C152.33316437 330.11689392 151.5341571 329.32820923 150.7109375 328.515625 C149.89251373 327.70003113 149.07408997 326.88443726 148.23086548 326.04412842 C145.61690027 323.44135438 142.99606495 320.84562238 140.375 318.25 C138.60110546 316.4861366 136.82766234 314.7218191 135.0546875 312.95703125 C130.70834858 308.63273864 126.35634919 304.3142067 122 300 C122.9363831 298.89661782 123.87436188 297.79458971 124.81298828 296.69311523 C125.33514923 296.07927475 125.85731018 295.46543427 126.39529419 294.83299255 C128.76998924 292.12047147 131.30432601 289.58776807 133.875 287.0625 C134.37257813 286.56943359 134.87015625 286.07636719 135.3828125 285.56835938 C136.58620285 284.37654008 137.79275365 283.18791322 139 282 C141.95216751 283.32899116 144.01467471 284.77208542 146.28393555 287.07275391 C146.90104904 287.69324615 147.51816254 288.3137384 148.15397644 288.95303345 C149.13543388 289.95468033 149.13543388 289.95468033 150.13671875 290.9765625 C150.81676468 291.66181 151.49681061 292.3470575 152.19746399 293.05307007 C154.36561441 295.2390171 156.52694961 297.43154295 158.6875 299.625 C160.85963422 301.82470242 163.03319135 304.02295014 165.20967102 306.21835327 C166.56348004 307.58447394 167.91460798 308.95325745 169.26286316 310.32485962 C169.87052017 310.93904755 170.47817719 311.55323547 171.10424805 312.18603516 C171.64067429 312.73071442 172.17710052 313.27539368 172.7297821 313.83657837 C173.83582135 315.11257109 173.83582135 315.11257109 175 315 C175.15855469 314.03320312 175.31710937 313.06640625 175.48046875 312.0703125 C176.76490755 304.74627849 178.24955893 298.47864115 182.01171875 291.953125 C183.2257457 289.91868326 183.2257457 289.91868326 183 287 C181.37467859 285.11249967 179.75135611 283.40352394 177.96875 281.67578125 C177.45824097 281.16951706 176.94773193 280.66325287 176.42175293 280.14164734 C174.78806593 278.52476595 173.14426256 276.91861874 171.5 275.3125 C170.3912453 274.21878969 169.28316353 273.12439674 168.17578125 272.02929688 C165.45826861 269.34487842 162.73163639 266.6700419 160 264 C163.62180704 256.4903775 170.08083283 250.75724466 176 245 C179.86328627 246.5847358 182.28876923 249.05956887 185.203125 252.0078125 C185.6857782 252.49329559 186.1684314 252.97877869 186.66571045 253.47897339 C188.19858562 255.02299866 189.72434004 256.57384824 191.25 258.125 C192.29120361 259.17624009 193.33286541 260.22702657 194.375 261.27734375 C196.92199464 263.84633004 199.46265177 266.42148161 202 269 C202.68074585 268.41557129 202.68074585 268.41557129 203.37524414 267.81933594 C206.05379077 265.52131497 208.73266886 263.22484995 211.43359375 260.953125 C212.09488281 260.39109375 212.75617188 259.8290625 213.4375 259.25 C214.11683594 258.67765625 214.79617188 258.1053125 215.49609375 257.515625 C217.23478574 256.11924262 217.23478574 256.11924262 217 254 C217.99 253.67 218.98 253.34 220 253 C218.41564623 249.0934444 215.89275364 246.72211894 212.87890625 243.82421875 C211.85063418 242.82124774 210.82264835 241.8179832 209.79492188 240.81445312 C208.18151623 239.25053995 206.56511631 237.69000824 204.94311523 236.13500977 C203.37099652 234.623772 201.81195087 233.09994457 200.25390625 231.57421875 C199.31877197 230.67276123 198.3836377 229.77130371 197.42016602 228.8425293 C194.30288492 225.18122558 191.99618926 221.45030404 192.00390625 216.48828125 C193.16584458 211.96240958 194.10166162 208.92375379 198 206 C204.55875317 202.72062342 213.70302311 205.5563277 220.42578125 207.22265625 C221.37639938 207.44698837 222.32701752 207.6713205 223.30644226 207.90245056 C226.31108685 208.61194466 229.31204544 209.33550486 232.3125 210.0625 C236.28505341 211.02355563 240.26056086 211.97074786 244.23828125 212.91015625 C245.59618523 213.24600487 245.59618523 213.24600487 246.98152161 213.58863831 C253.01645551 215.1296006 253.01645551 215.1296006 259 214 C261.20494525 212.34219161 261.20494525 212.34219161 263.20703125 210.18359375 C263.95791016 209.41982422 264.70878906 208.65605469 265.48242188 207.86914062 C266.25134766 207.06669922 267.02027344 206.26425781 267.8125 205.4375 C268.60076172 204.63119141 269.38902344 203.82488281 270.20117188 202.99414062 C272.14342916 201.00479831 274.07573661 199.00672729 276 197 C273.80846651 194.80846651 272.14802208 194.07123716 269.30786133 192.86791992 C268.32593811 192.44913574 267.34401489 192.03035156 266.33233643 191.59887695 C265.25973572 191.14730225 264.18713501 190.69572754 263.08203125 190.23046875 C261.96890564 189.75738281 260.85578003 189.28429687 259.70892334 188.796875 C256.7001133 187.51935641 253.68951045 186.24619087 250.67790604 184.97527695 C247.57753671 183.66596443 244.47922077 182.35180983 241.38061523 181.03833008 C235.3358044 178.47703906 229.28813631 175.92254662 223.23999023 173.36914062 C219.51496652 171.79503672 215.79225492 170.2155449 212.07014465 168.63456726 C209.20532968 167.4183928 206.3390161 166.20579324 203.47201538 164.99478149 C201.61367988 164.2091372 199.75664962 163.42040779 197.8996582 162.6315918 C196.79968506 162.16922119 195.69971191 161.70685059 194.56640625 161.23046875 C193.64802979 160.84270264 192.72965332 160.45493652 191.78344727 160.05541992 C186.16533766 157.92516049 181.16218985 156.75116895 175.14111328 156.74462891 C174.17104591 156.73919823 174.17104591 156.73919823 173.18138123 156.73365784 C171.78792852 156.72680982 170.39444925 156.7242497 169.00098038 156.72560501 C166.77764543 156.72658123 164.55477978 156.71349528 162.33151245 156.69662476 C156.01368945 156.65071762 149.695914 156.62581977 143.37792969 156.61914062 C139.49870285 156.61405384 135.61996239 156.58944253 131.74090195 156.55381393 C130.28128897 156.54417196 128.82160768 156.54159619 127.36197281 156.54698563 C111.30855125 156.60342151 97.29207315 153.45673382 83 146 Z M407.46777344 163.26538086 C406.08081268 163.68056725 406.08081268 163.68056725 404.66583252 164.10414124 C403.65720154 164.40879807 402.64857056 164.7134549 401.609375 165.02734375 C392.38858349 167.76634676 383.13663756 170.33018064 373.828125 172.75390625 C372.63417114 173.06661469 371.44021729 173.37932312 370.21008301 173.70150757 C365.31299202 174.98342793 360.41540939 176.26292553 355.51269531 177.52319336 C351.86455788 178.46297384 348.22116875 179.41959692 344.578125 180.37890625 C343.49041809 180.65408585 342.40271118 180.92926544 341.28204346 181.21278381 C327.5034738 184.87632167 317.956359 191.1445667 308.02099609 201.18676758 C306.88084844 202.31712437 305.7394431 203.44621376 304.59689331 204.57414246 C301.52559293 207.61407531 298.47335284 210.67247218 295.42536116 213.73575425 C292.87136523 216.29895318 290.30792827 218.8526047 287.74445593 221.40632075 C281.69750916 227.43043871 275.66582382 233.46953185 269.64404297 239.51879883 C263.44229952 245.74839857 257.21724412 251.95396751 250.97997987 258.14798623 C245.60981147 263.48235476 240.25339336 268.83025223 234.90795577 274.18940276 C231.72185531 277.38353238 228.53108842 280.57259243 225.32740402 283.74909401 C222.31875644 286.73356049 219.3277394 289.73465616 216.34926224 292.74922371 C215.25642704 293.84969039 214.15764567 294.94429009 213.05245972 296.03235245 C207.13829178 301.86241565 202.59651647 306.37008681 202 315 C202.33 315.66 202.66 316.32 203 317 C205.60428687 317.80744222 205.60428687 317.80744222 208.6875 318.4375 C212.35626554 319.2817948 215.13506063 320.06994211 218.5 321.8125 C219.325 322.204375 220.15 322.59625 221 323 C224.30807345 321.79412846 226.4376018 319.8097792 228.89776611 317.34274292 C229.66053864 316.58271973 230.42331116 315.82269653 231.209198 315.03964233 C232.03638336 314.20526642 232.86356873 313.3708905 233.71582031 312.51123047 C234.59422577 311.63311707 235.47263123 310.75500366 236.37765503 309.85028076 C238.78181611 307.44496569 241.18145536 305.0353008 243.57919407 302.62359381 C246.08736128 300.10291801 248.60119926 297.58791065 251.11444092 295.07229614 C255.87115086 290.30937182 260.62273986 285.54137253 265.37250972 280.77152836 C270.7808817 275.34079612 276.19493866 269.91574666 281.60948038 264.49116683 C292.7459909 253.33375525 303.87534142 242.16922952 315 231 C318.11966041 232.48863736 320.24012613 234.00288692 322.671875 236.4765625 C323.33574219 237.146875 323.99960937 237.8171875 324.68359375 238.5078125 C325.70646484 239.55582031 325.70646484 239.55582031 326.75 240.625 C327.44738281 241.33140625 328.14476562 242.0378125 328.86328125 242.765625 C330.58012488 244.50598703 332.29211832 246.25084981 334 248 C332.40899871 251.93338723 329.69635336 254.56618205 326.72412109 257.48706055 C326.18738266 258.02248474 325.65064423 258.55790894 325.09764099 259.10955811 C323.32746321 260.87325907 321.55042256 262.6298789 319.7734375 264.38671875 C318.54267521 265.61121022 317.31242694 266.83621854 316.08267212 268.0617218 C312.84825725 271.28284439 309.60831816 274.49834786 306.36676025 277.71228027 C301.16965993 282.8662214 295.97932254 288.02695239 290.79213333 293.19086647 C288.97521268 294.9975242 287.15494011 296.80075474 285.33432007 298.60368347 C284.22846369 299.70271633 283.12271431 300.80185688 282.01708984 301.90112305 C281.25036705 302.65773979 281.25036705 302.65773979 280.46815491 303.42964172 C279.29301085 304.60091286 278.14340913 305.79772916 277 307 C277 307.33 277 307.66 277 308 C277.95519531 308.02578125 278.91039062 308.0515625 279.89453125 308.078125 C288.33943122 308.44858921 295.15751853 309.6147562 303 313 C303.99 313.33 304.98 313.66 306 314 C306.56740906 313.42148788 307.13481812 312.84297577 307.71942139 312.24693298 C313.06236237 306.80391127 318.41714301 301.37295354 323.78571701 295.95522213 C326.54551433 293.16930301 329.30045834 290.37891341 332.04492188 287.57788086 C334.69242467 284.87615105 337.35186819 282.18673075 340.02011871 279.50549507 C341.03721351 278.47914368 342.04988841 277.44839316 343.05806732 276.41328239 C344.46810956 274.96708181 345.89529925 273.53765954 347.32324219 272.10913086 C348.1315448 271.28972519 348.93984741 270.47031952 349.77264404 269.62608337 C352 268 352 268 354.17686462 268.1539917 C358.05743894 269.9547346 360.83028077 273.31907994 363.8125 276.3125 C364.51826172 276.98990234 365.22402344 277.66730469 365.95117188 278.36523438 C366.61310547 279.02458984 367.27503906 279.68394531 367.95703125 280.36328125 C368.56522705 280.96438721 369.17342285 281.56549316 369.80004883 282.18481445 C371 284 371 284 370.76568604 285.90246582 C369.86926785 288.35813003 368.80868867 289.54780326 366.94897461 291.37573242 C366.30838608 292.01286667 365.66779755 292.65000092 365.00779724 293.30644226 C364.31299759 293.982621 363.61819794 294.65879974 362.90234375 295.35546875 C362.19348526 296.05771072 361.48462677 296.7599527 360.75428772 297.48347473 C358.48900025 299.7253462 356.213796 301.95681153 353.9375 304.1875 C351.6594001 306.43060752 349.38342431 308.67581355 347.11000061 310.92366028 C345.69420124 312.32239976 344.27534276 313.71805044 342.85325623 315.11039734 C342.21581985 315.7380751 341.57838348 316.36575287 340.92163086 317.01245117 C340.3561705 317.5666423 339.79071014 318.12083344 339.20811462 318.69181824 C337.88692491 319.82565824 337.88692491 319.82565824 338 321 C338.85980469 321.07476562 339.71960938 321.14953125 340.60546875 321.2265625 C341.78753906 321.35804688 342.96960938 321.48953125 344.1875 321.625 C345.33605469 321.74101562 346.48460937 321.85703125 347.66796875 321.9765625 C353.8374936 323.05665489 359.42982323 326.25911097 365 329 C365.70608398 328.26773193 366.41216797 327.53546387 367.13964844 326.78100586 C369.75843916 324.07182935 372.39365074 321.37914162 375.03417969 318.69116211 C376.17546093 317.52471032 377.31221788 316.35381414 378.44433594 315.1784668 C380.07102745 313.49123729 381.71323723 311.82057828 383.359375 310.15234375 C384.11586334 309.35714577 384.11586334 309.35714577 384.88763428 308.54588318 C386.34277344 307.08959961 386.34277344 307.08959961 389 305 C392.12474604 305.07118891 392.85675159 305.86404424 395.1484375 308.0390625 C396.25058594 309.31910156 396.25058594 309.31910156 397.375 310.625 C398.46941406 311.88183594 398.46941406 311.88183594 399.5859375 313.1640625 C400.38257813 314.09992188 401.17921875 315.03578125 402 316 C403.09597709 317.27896906 404.19233951 318.557608 405.2890625 319.8359375 C406.19275985 320.89058086 407.0964241 321.94525259 408 323 C407.37432129 323.60996826 406.74864258 324.21993652 406.10400391 324.84838867 C403.7758045 327.12531663 401.4545429 329.40903638 399.13769531 331.69750977 C398.13552083 332.68464193 397.13066447 333.6690593 396.12304688 334.65063477 C394.67116033 336.06593722 393.22935111 337.4908767 391.7890625 338.91796875 C390.91975098 339.77156982 390.05043945 340.6251709 389.15478516 341.50463867 C386.61748147 344.16911846 386.61748147 344.16911846 385 349 C390.28 354.28 395.56 359.56 401 365 C405.05893422 362.97053289 407.14100012 361.06344401 410.28125 357.84375 C410.77661255 357.34081421 411.2719751 356.83787842 411.78234863 356.31970215 C413.35981948 354.7178765 414.9306597 353.1097897 416.5 351.5 C418.56710588 349.37961493 420.64078261 347.26598594 422.71875 345.15625 C423.63591797 344.21587891 424.55308594 343.27550781 425.49804688 342.30664062 C429.57037958 338.55221055 432.34615558 337.56921471 437.97265625 337.7578125 C441.26387285 338.15098288 443.31488121 339.06421669 446 341 C450.29406909 347.92591789 448.67602777 354.27374713 446.95263672 361.90551758 C446.53321688 363.65303795 446.10870071 365.39934126 445.6796875 367.14453125 C445.22245989 369.05659368 444.76543447 370.96870447 444.30859375 372.88085938 C443.58971051 375.86173315 442.86785286 378.84183849 442.14208984 381.82104492 C441.43837638 384.71870255 440.74590923 387.61887259 440.0546875 390.51953125 C439.83392548 391.41122513 439.61316345 392.30291901 439.38571167 393.22163391 C439.18865631 394.0531749 438.99160095 394.88471588 438.78857422 395.74145508 C438.61172089 396.46931717 438.43486755 397.19717926 438.25265503 397.94709778 C437.9627495 400.30267216 438.17108115 401.77970077 439 404 C440.87479865 405.92943235 442.72393268 407.68398698 444.75 409.4375 C445.80828356 410.37257653 446.86558436 411.30876654 447.921875 412.24609375 C448.6962793 412.92647705 448.6962793 412.92647705 449.48632812 413.62060547 C450.96828691 414.97110017 452.36874151 416.40933977 453.765625 417.84765625 C455.72299776 420.23125422 455.72299776 420.23125422 458 420 C458.27038086 419.35901367 458.54076172 418.71802734 458.81933594 418.05761719 C464.13545006 405.46025371 469.47577142 392.8744656 474.875 380.3125 C479.02720642 370.63521336 483.16256585 360.9508887 487.25494385 351.24813843 C487.82853159 349.88965491 488.40349215 348.53175009 488.97991943 347.17446899 C489.7848455 345.27811324 490.58446538 343.37960188 491.3828125 341.48046875 C492.06947998 339.85467896 492.06947998 339.85467896 492.77001953 338.19604492 C494.96263627 332.49863609 496.2476033 327.41270036 496.28710938 321.29296875 C496.30052368 320.00052246 496.31393799 318.70807617 496.32775879 317.37646484 C496.33032181 316.69461121 496.33288483 316.01275757 496.33552551 315.3102417 C496.34390974 313.14627092 496.36450619 310.98270341 496.38806152 308.81884766 C496.43605867 304.21262632 496.46905572 299.60636322 496.5 295 C496.53596462 289.68213421 496.57844876 284.36446355 496.63594055 279.04678345 C496.65561539 276.94286202 496.66425049 274.83910034 496.67224121 272.73510742 C496.68565552 271.41744385 496.69906982 270.09978027 496.71289062 268.7421875 C496.71915215 266.79875206 496.71915215 266.79875206 496.72554016 264.8160553 C497 261 497 261 498.10295105 257.37425232 C499.25853097 253.37619444 500.10564237 250.04532929 499 246 C494.47915433 238.29589324 487.3198112 232.27429637 480.92578125 226.16015625 C479.04332739 224.30181413 477.16440044 222.43989314 475.28886414 220.5745697 C471.36223278 216.68095252 467.40611421 212.81967514 463.42700195 208.97973633 C457.81214819 203.56112523 452.25581181 198.08530704 446.70868552 192.59750569 C442.39662463 188.33595513 438.06809158 184.09116141 433.73828125 179.84765625 C432.35054725 178.48656581 432.35054725 178.48656581 430.93477821 177.09797859 C428.32611503 174.54733285 425.70691235 172.00810638 423.08325195 169.47290039 C421.91652451 168.33005585 421.91652451 168.33005585 420.72622681 167.16412354 C420.01242355 166.47901199 419.2986203 165.79390045 418.56318665 165.08802795 C417.9439095 164.48806535 417.32463236 163.88810274 416.68658924 163.26995945 C413.65148865 160.98460474 410.81782283 162.24750697 407.46777344 163.26538086 Z M273.23287582 338.31082094 C271.44884657 339.92497915 269.75791211 341.59916645 268.07763672 343.3210907 C267.4296836 343.96477169 266.78173048 344.60845269 266.11414242 345.27163917 C263.95727876 347.42030124 261.818715 349.58627783 259.6796875 351.75268555 C258.13280353 353.30098058 256.58481633 354.84817407 255.03581238 356.39434814 C250.84126676 360.58746053 246.66230494 364.79579845 242.48598099 369.00704932 C238.1160696 373.40823892 233.73197351 377.79525223 229.34936523 382.18379211 C221.52708063 390.02072795 213.71559339 397.86831311 205.90974915 405.72162179 C198.82499465 412.84922648 191.73443292 419.97099757 184.63818359 427.0871582 C184.17132708 427.55532834 183.70447056 428.02349847 183.22346687 428.50585558 C180.88121902 430.8546289 178.53886189 433.20329321 176.19646454 435.55191743 C156.78178511 455.01884505 137.38502178 474.5035425 118 494 C116.89661782 493.0636169 115.79458971 492.12563812 114.69311523 491.18701172 C114.07927475 490.66485077 113.46543427 490.14268982 112.83299255 489.60470581 C110.12047147 487.23001076 107.58776807 484.69567399 105.0625 482.125 C104.56943359 481.62742187 104.07636719 481.12984375 103.56835938 480.6171875 C102.37654008 479.41379715 101.18791322 478.20724635 100 477 C101.51940805 473.42079157 103.61966423 471.13803139 106.3651123 468.40783691 C107.28211411 467.4909761 108.19911591 466.5741153 109.14390564 465.62947083 C110.16291002 464.62073386 111.1820017 463.61208508 112.20117188 462.60351562 C113.27254362 461.53598294 114.34346037 460.46799345 115.41395569 459.39958191 C117.7186868 457.10117041 120.02648816 454.8059026 122.33668518 452.51298523 C125.98900212 448.88770969 129.6336816 445.25482112 133.27722168 441.62072754 C141.67023324 433.25180665 150.07322705 424.89293177 158.47629547 416.53411102 C166.17782001 408.87293493 173.87722979 401.2096654 181.56857157 393.53826475 C185.19137266 389.9254341 188.81899657 386.31753802 192.45037079 382.7133255 C194.70758405 380.47102267 196.96065354 378.2245915 199.21261406 375.97701454 C200.25817158 374.93520358 201.30545783 373.89512429 202.35458565 372.8569088 C203.78595557 371.43996126 205.21060122 370.01623057 206.6348877 368.59216309 C207.43424995 367.79724205 208.23361221 367.00232101 209.05719757 366.18331146 C211.94013688 362.94347897 212.91887516 360.89237319 213.3125 356.5625 C212.87414476 351.56525029 211.205439 349.31180127 207.875 345.6875 C203.74640806 343.26419603 200.65425696 342.99724437 196 344 C188.26130223 348.95275817 181.73122746 357.15411578 175.26925087 363.65558434 C173.1399387 365.79777813 171.0074149 367.93672887 168.87406921 370.0749054 C164.350717 374.60962201 159.83132487 379.14827249 155.3125 383.6875 C150.06240268 388.9612414 144.81067146 394.23333415 139.55470848 399.50123024 C137.45826167 401.60413823 135.36485882 403.71004423 133.27156067 405.81608582 C131.98367917 407.10760049 130.69565671 408.3989746 129.4074707 409.69018555 C128.83021744 410.27260513 128.25296417 410.85502472 127.65821838 411.45509338 C125.21466581 413.89896364 122.82857766 416.13412309 120.09953308 418.2693634 C119.40668716 418.84047348 118.71384125 419.41158356 118 420 C118 420.66 118 421.32 118 422 C117.443125 422.226875 116.88625 422.45375 116.3125 422.6875 C113.33840412 424.37550036 111.27991135 426.46676517 109 429 C109 429.66 109 430.32 109 431 C107.515 431.495 107.515 431.495 106 432 C106 432.66 106 433.32 106 434 C104.515 434.495 104.515 434.495 103 435 C103 435.66 103 436.32 103 437 C102.43466553 437.2371875 101.86933105 437.474375 101.28686523 437.71875 C98.48751984 439.28712458 96.63686339 441.18943431 94.41015625 443.5 C93.54326172 444.386875 92.67636719 445.27375 91.78320312 446.1875 C89.97128833 448.06054904 88.16138618 449.93554715 86.35351562 451.8125 C85.48533203 452.699375 84.61714844 453.58625 83.72265625 454.5 C82.93640869 455.3146875 82.15016113 456.129375 81.34008789 456.96875 C78.44076397 459.48542971 75.79870353 460.89780094 71.9375 461.1171875 C67.23831501 460.52978938 64.36983592 459.56806156 61 456 C57.45311998 450.51845815 59.50260294 443.4732947 60.71292114 437.45501709 C61.47656906 434.03880044 62.26106864 430.62945598 63.06886482 427.22350693 C63.60878795 424.94521551 64.14021274 422.66508284 64.66954041 420.38430786 C66.17445154 413.90729382 67.69547588 407.43408468 69.21899414 400.96142578 C70.15471654 396.98343767 71.08181566 393.00351404 72.00402641 389.0223732 C72.5246212 386.78741539 73.05527819 384.55500311 73.5861969 382.32247925 C73.90705527 380.9402116 74.22738996 379.55782225 74.54711914 378.17529297 C74.96895226 376.38186966 74.96895226 376.38186966 75.39930725 374.55221558 C76.25269398 369.50568618 77.15683367 363.79193993 74.3125 359.25 C70.75300878 354.2474718 68.01763389 352.0247056 62 351 C51.29602389 374.56506773 41.25354118 398.41614731 31.15322876 422.24414062 C28.29417821 428.98021719 25.40119152 435.70012741 22.47265625 442.40625 C21.50643153 444.63200826 20.54126592 446.8582219 19.57659912 449.08465576 C18.99550377 450.41817924 18.40979505 451.74970441 17.81890869 453.07891846 C17.01699927 454.88325867 16.23272651 456.69540584 15.44921875 458.5078125 C14.80472778 459.97178467 14.80472778 459.97178467 14.1472168 461.46533203 C10.85361377 471.61319001 10.68535357 481.93208909 10.62109375 492.51171875 C10.60486532 493.97517448 10.58768004 495.43861987 10.56959534 496.90205383 C10.52434476 500.72066419 10.48932238 504.53928975 10.45739746 508.35803223 C10.40512414 514.47785925 10.33975652 520.59753242 10.26918221 526.71717262 C10.24663625 528.83574185 10.2301873 530.95429243 10.21446228 533.07292175 C10.19422752 535.02588921 10.19422752 535.02588921 10.17358398 537.01831055 C10.16407211 538.15237839 10.15456024 539.28644623 10.14476013 540.45487976 C10 544 10 544 9.49900341 546.12876225 C8.74283238 549.65742299 8.38652833 551.94769268 10.25041676 555.14487934 C12.25241423 557.48608527 14.36889821 559.60569255 16.59741211 561.73266602 C17.82614296 562.96358727 17.82614296 562.96358727 19.07969666 564.21937561 C21.78921551 566.92193563 24.53240305 569.58737068 27.27734375 572.25390625 C29.16428433 574.12219263 31.04916494 575.99234833 32.93153381 577.86521912 C37.38129681 582.28394185 41.85592243 586.67656433 46.34011894 591.06030935 C51.44555697 596.05384294 56.52251503 601.07591667 61.59731662 606.10055268 C72.03353985 616.43234382 82.50496546 626.72795905 93 637 C93.63618035 636.80688704 94.27236071 636.61377409 94.92781925 636.41480923 C100.06306846 634.86376168 105.20485624 633.36909039 110.38647461 631.97875977 C111.05301559 631.79942902 111.71955658 631.62009827 112.40629578 631.43533325 C113.83230723 631.05175891 115.25847778 630.66877561 116.68479729 630.28634834 C118.9532489 629.67774899 121.22104337 629.06675551 123.48866272 628.45506287 C129.92888136 626.71793794 136.3695817 624.98263694 142.81225586 623.25463867 C146.77363106 622.1919685 150.73369908 621.12454111 154.69299507 620.05415154 C156.18782247 619.65097836 157.683116 619.24952885 159.17890739 618.84994698 C175.64037778 615.11973422 175.64037778 615.11973422 189.5625 606.375 C190.03445801 605.91915527 190.50641602 605.46331055 190.99267578 604.99365234 C192.68232296 603.34870764 194.34122298 601.6760698 196 600 C197.51644523 598.48389289 199.03340706 596.96830237 200.55078125 595.453125 C202.9356232 593.07045394 205.31634264 590.68455748 207.68188477 588.28271484 C210.86389826 585.061798 214.00232608 581.9182273 217.5390625 579.0859375 C218.35117187 578.39757812 219.16328125 577.70921875 220 577 C220 576.34 220 575.68 220 575 C220.99 574.67 221.98 574.34 223 574 C223 573.34 223 572.68 223 572 C224.32 571.34 225.64 570.68 227 570 C227 569.34 227 568.68 227 568 C227.89235304 567.59478984 227.89235304 567.59478984 228.80273342 567.18139362 C230.98725082 566.00685479 232.40962943 564.8417854 234.15626526 563.09770203 C234.75483337 562.50477356 235.35340149 561.91184509 235.97010803 561.3009491 C236.61491623 560.65209244 237.25972443 560.00323578 237.92407227 559.3347168 C238.612341 558.6499527 239.30060974 557.9651886 240.00973511 557.25967407 C242.28368328 554.99452867 244.55023698 552.72214465 246.81640625 550.44921875 C248.39504734 548.87192488 249.97398522 547.29492801 251.5532074 545.71821594 C254.8625484 542.41182437 258.16824293 539.10184032 261.47143555 535.78930664 C265.70379668 531.54556054 269.94505948 527.3108429 274.18910313 523.07878399 C277.45179851 519.82331998 280.70970982 516.5631019 283.96619987 513.30143166 C285.52802687 511.73827122 287.09133893 510.17659311 288.65616035 508.61643028 C290.8440937 506.43358196 293.02550297 504.24441398 295.20532227 502.0534668 C295.85215469 501.41068283 296.49898712 500.76789886 297.16542053 500.1056366 C302.62978749 494.71346613 302.62978749 494.71346613 305.3984375 487.71875 C305.34903922 483.04237905 305.2300101 479.66067811 302 476 C297.62423085 473.11597033 294.19900136 472.35012483 289 473 C283.11123574 476.27680964 278.67874607 481.05333714 273.96533203 485.80761719 C273.07688095 486.69577621 272.18842987 487.58393524 271.27305603 488.49900818 C268.85041715 490.92279768 266.43228788 493.35092422 264.01608896 495.78112316 C261.48526223 498.32449327 258.9487312 500.86216163 256.41281128 503.40045166 C251.61720533 508.2022618 246.8267184 513.00914515 242.03806961 517.81789231 C236.58371881 523.29463519 231.12365518 528.76566748 225.66311479 534.236238 C214.43572772 545.48450303 203.21550215 556.73988388 192 568 C190.89661782 567.0636169 189.79458971 566.12563812 188.69311523 565.18701172 C188.07927475 564.66485077 187.46543427 564.14268982 186.83299255 563.60470581 C184.12047147 561.23001076 181.58776807 558.69567399 179.0625 556.125 C178.56943359 555.62742187 178.07636719 555.12984375 177.56835938 554.6171875 C176.37654008 553.41379715 175.18791322 552.20724635 174 551 C175.59284472 547.11306118 178.09201525 544.66684725 181.04846191 541.7244873 C181.56737078 541.20528072 182.08627965 540.68607413 182.62091303 540.15113401 C184.36040951 538.41302619 186.1069474 536.68217122 187.85351562 534.95117188 C189.10222478 533.7063011 190.35047931 532.46097416 191.59831238 531.21522522 C194.28609936 528.53376118 196.97696272 525.85543639 199.67021179 523.17945862 C203.92740943 518.94928512 208.17698676 514.71151229 212.42541504 510.47253418 C222.21172341 500.71032464 232.00801423 490.95815216 241.80437469 481.2060318 C250.78233767 472.26840812 259.75819321 463.32869525 268.72597837 454.38085794 C272.95090635 450.16590565 277.18066651 445.95588117 281.41416168 441.74953461 C284.04503172 439.13356618 286.67176703 436.51347626 289.29738808 433.89224052 C290.51710246 432.6762754 291.73854709 431.46204305 292.96182823 430.24966621 C294.62970448 428.59619293 296.29132665 426.93667666 297.95153809 425.2755127 C298.88363853 424.34785347 299.81573898 423.42019424 300.7760849 422.46442413 C304.47551327 418.36491487 305.4102991 415.57022767 305.25390625 409.9609375 C304.76424494 406.17924551 302.88517514 403.9179594 300.3125 401.25 C296.92132293 399.41693132 293.81187648 398.69081564 290 399 C281.80776294 403.08616917 275.79858516 409.80011308 269.43359375 416.22583008 C268.18184304 417.47842802 266.92942935 418.73036373 265.67640686 419.98168945 C262.29214036 423.36509835 258.91717702 426.75764954 255.54385376 430.15196443 C252.0111928 433.70343132 248.46998404 437.24635448 244.9296875 440.79020691 C238.23383973 447.49536363 231.54567351 454.20812812 224.8602581 460.92368478 C217.24585053 468.57167212 209.62288089 476.211101 201.99919319 483.84983599 C186.32327459 499.55707758 170.65809675 515.27499358 155 531 C153.89661782 530.0636169 152.79458971 529.12563812 151.69311523 528.18701172 C151.07927475 527.66485077 150.46543427 527.14268982 149.83299255 526.60470581 C147.12047147 524.23001076 144.58776807 521.69567399 142.0625 519.125 C141.56943359 518.62742187 141.07636719 518.12984375 140.56835938 517.6171875 C139.37654008 516.41379715 138.18791322 515.20724635 137 514 C138.65678811 509.70051551 141.90211593 506.83211104 145.1114502 503.66149902 C145.74469853 503.02795297 146.37794686 502.39440692 147.03038454 501.7416625 C149.15682136 499.61661638 151.29032292 497.49880712 153.42382812 495.38085938 C154.94839558 493.86012956 156.47250881 492.33894426 157.99620056 490.81733704 C161.27985259 487.54001159 164.56658767 484.26582054 167.85569763 480.99397278 C173.05382461 475.82285111 178.24435001 470.64414505 183.43371582 465.4642334 C195.38737409 453.53468289 207.35101501 441.61515966 219.31472015 429.69568634 C230.27825593 418.77247988 241.23969226 407.84718886 252.19305563 396.91378069 C257.35462598 391.76219175 262.52103867 386.61552327 267.69116974 381.47252655 C270.90328564 378.27530265 274.11127665 375.07396471 277.31814766 371.87148094 C278.80877241 370.38460839 280.30112904 368.89946983 281.7953167 367.41617775 C283.83101763 365.39485807 285.8605057 363.36749856 287.8885498 361.33850098 C288.48445687 360.74978384 289.08036393 360.16106669 289.69432878 359.55450964 C293.84654843 355.38125861 295.80825504 352.98136459 296.375 347.125 C296.21940133 342.72729019 295.09301376 340.24389248 292 337 C285.32391298 333.17010332 279.47263821 333.6822774 273.23287582 338.31082094 Z M330 352 C327.42861453 356.27081325 327.06682244 360.14507904 328 365 C329.25034735 366.97102328 329.25034735 366.97102328 330.98535156 368.74493408 C331.62371948 369.43685097 332.2620874 370.12876785 332.9197998 370.84165192 C336.49819294 374.55447628 340.12411182 378.21153116 343.796875 381.83105469 C344.64806412 382.67435837 345.49925323 383.51766205 346.37623596 384.38652039 C348.21072418 386.20390531 350.04625191 388.02024142 351.88272095 389.83562469 C354.78598418 392.70601291 357.68307495 395.58257758 360.57885742 398.46051025 C361.57371475 399.44910859 362.56857254 400.43770645 363.56343079 401.42630386 C364.06108759 401.92084454 364.55874439 402.41538522 365.0714817 402.92491198 C371.80306401 409.61357728 378.53928508 416.29747227 385.28955078 422.96728516 C389.85993658 427.4832945 394.42145648 432.00805328 398.97291374 436.5431416 C401.37789153 438.93873629 403.787272 441.32950569 406.2076416 443.70955658 C408.89605455 446.35722652 411.56877536 449.01981138 414.23828125 451.68652344 C415.04439346 452.47308823 415.85050568 453.25965302 416.68104553 454.0700531 C417.76185646 455.15900627 417.76185646 455.15900627 418.86450195 456.2699585 C419.49789993 456.89744869 420.13129791 457.52493889 420.78388977 458.17144394 C422 460 422 460 421.79486084 462.11294937 C420.75074586 464.59174532 419.32505996 466.01332728 417.40234375 467.890625 C416.68369141 468.59960938 415.96503906 469.30859375 415.22460938 470.0390625 C414.46986328 470.76867187 413.71511719 471.49828125 412.9375 472.25 C411.79958008 473.36761719 411.79958008 473.36761719 410.63867188 474.5078125 C408.76567793 476.34546694 406.88604389 478.17575724 405 480 C400.22488979 476.01741263 395.72201014 471.85920901 391.34619141 467.44384766 C390.722547 466.81874298 390.09890259 466.19363831 389.45635986 465.54959106 C388.1157545 464.20520749 386.77630455 462.85967092 385.4379158 461.5130806 C383.32236442 459.38468718 381.20363576 457.2595025 379.08407593 455.13510132 C374.59489415 450.63454307 370.10967804 446.13004551 365.625 441.625 C360.40645294 436.38287349 355.18630466 431.14236247 349.96195602 425.9060173 C347.86978143 423.80733807 345.78062707 421.70568309 343.69155884 419.60391235 C342.42033292 418.32905713 341.1489682 417.05434029 339.87744141 415.77978516 C339.00165939 414.89625366 339.00165939 414.89625366 338.10818481 413.99487305 C336.75763299 412.64414151 335.38161221 411.31894413 334 410 C333.67 410 333.34 410 333 410 C332.76216797 411.45019531 332.76216797 411.45019531 332.51953125 412.9296875 C331.22397189 420.30535911 329.78576165 426.47351261 325.79296875 432.94921875 C324.7704312 434.9421134 324.7704312 434.9421134 325.5977478 436.7612915 C327.54307576 439.86702543 330.04996719 442.3112617 332.64306641 444.87011719 C333.21881912 445.44616196 333.79457184 446.02220673 334.38777161 446.6157074 C336.28766537 448.51421037 338.19453991 450.40553522 340.1015625 452.296875 C341.42193434 453.61351582 342.74186464 454.93059957 344.06137085 456.24810791 C347.53234276 459.71145037 351.0092793 463.16874418 354.48748779 466.62481689 C358.03694385 470.1537998 361.58073201 473.6884642 365.125 477.22265625 C372.07779463 484.15401308 379.03690309 491.07899377 386 498 C385.0636169 499.10338218 384.12563812 500.20541029 383.18701172 501.30688477 C382.66485077 501.92072525 382.14268982 502.53456573 381.60470581 503.16700745 C379.23001076 505.87952853 376.69567399 508.41223193 374.125 510.9375 C373.62742187 511.43056641 373.12984375 511.92363281 372.6171875 512.43164062 C371.41379715 513.62345992 370.20724635 514.81208678 369 516 C365.58270556 514.52706969 363.38025932 512.61375065 360.77734375 509.97265625 C359.99166016 509.18052734 359.20597656 508.38839844 358.39648438 507.57226562 C357.17928711 506.32993164 357.17928711 506.32993164 355.9375 505.0625 C355.12216797 504.23814453 354.30683594 503.41378906 353.46679688 502.56445312 C351.95205723 501.03228837 350.43938077 499.49807918 348.92944336 497.96118164 C347.9743689 496.99039673 347.9743689 496.99039673 347 496 C346.46189697 495.41919678 345.92379395 494.83839355 345.36938477 494.23999023 C344.06080892 492.77626074 344.06080892 492.77626074 342 493 C341.814375 492.443125 341.62875 491.88625 341.4375 491.3125 C339.33639286 487.93245808 336.29334006 486.14859619 333 484 C332.84144531 484.89460937 332.68289063 485.78921875 332.51953125 486.7109375 C331.16087961 493.75190566 329.54765049 499.76444825 325.98828125 506.01171875 C324.7774494 508.0776815 324.7774494 508.0776815 325 511 C326.69692482 512.95924864 328.39569006 514.74335114 330.25 516.54296875 C330.78270508 517.07142899 331.31541016 517.59988922 331.86425781 518.1443634 C333.56927029 519.83256735 335.28441127 521.51005145 337 523.1875 C338.15693178 524.32938778 339.31319065 525.47195776 340.46875 526.61523438 C343.30474911 529.41813541 346.14987676 532.2114652 349 535 C345.22369848 539.51572304 341.32390572 543.81275974 337.125 547.9375 C336.62742187 548.43056641 336.12984375 548.92363281 335.6171875 549.43164062 C334.41379715 550.62345992 333.20724635 551.81208678 332 553 C328.13671373 551.4152642 325.71123077 548.94043113 322.796875 545.9921875 C322.3142218 545.50670441 321.8315686 545.02122131 321.33428955 544.52102661 C319.80141438 542.97700134 318.27565996 541.42615176 316.75 539.875 C315.70879639 538.82375991 314.66713459 537.77297343 313.625 536.72265625 C311.07800536 534.15366996 308.53734823 531.57851839 306 529 C301.48427696 532.77630152 297.18724026 536.67609428 293.0625 540.875 C292.56943359 541.37257813 292.07636719 541.87015625 291.56835938 542.3828125 C290.37654008 543.58620285 289.18791322 544.79275365 288 546 C289.57914885 549.9594835 292.33624393 552.49482971 295.375 555.359375 C296.45371027 556.40304125 297.53181655 557.44733207 298.609375 558.4921875 C300.30152086 560.12256906 301.99772414 561.74784797 303.70507812 563.36230469 C305.35894744 564.93089338 306.99279214 566.51829787 308.625 568.109375 C309.13337402 568.5805072 309.64174805 569.0516394 310.16552734 569.53704834 C314.15336832 573.46675308 315.12557328 576.62444817 316 582 C315.38814025 586.07906501 314.63981443 588.26324398 311.9375 591.375 C304.35571153 595.56918085 296.82706418 593.6262453 288.8671875 591.48046875 C286.74118739 590.94736201 284.61487544 590.41549758 282.48828125 589.88476562 C279.16848595 589.03868335 275.85259918 588.18154953 272.54150391 587.30200195 C269.32398218 586.45422184 266.09769555 585.65209293 262.8671875 584.85546875 C261.88160858 584.58075241 260.89602966 584.30603607 259.88058472 584.022995 C254.76899508 582.69759629 254.76899508 582.69759629 249.8868866 584.11532593 C248.08129968 585.64231981 246.55463468 587.22137573 245 589 C243.90453055 590.05461095 242.80257888 591.10257253 241.69140625 592.140625 C240.64585937 593.17448254 239.60287111 594.21093425 238.5625 595.25 C238.02173828 595.77851562 237.48097656 596.30703125 236.92382812 596.8515625 C235.57537512 598.19490127 234.28234713 599.59341891 233 601 C233 601.66 233 602.32 233 603 C236.57412008 604.52497093 240.14836471 606.04964974 243.72265625 607.57421875 C244.83829453 608.05008926 245.9539328 608.52595978 247.1033783 609.01625061 C253.24664886 611.63598373 259.39089684 614.25338709 265.53710938 616.86621094 C266.15273428 617.12794287 266.76835918 617.3896748 267.40263939 617.659338 C271.11700147 619.23848809 271.11700147 619.23848809 274.83147049 620.81738663 C281.48124797 623.64406288 288.12726345 626.47857067 294.75840759 629.34870911 C297.55128516 630.5565012 300.34791176 631.75541416 303.14547729 632.95230103 C304.92898359 633.71945321 306.70693435 634.49948207 308.48461914 635.2800293 C320.60363087 640.4456731 332.30756053 642.44288717 345.46043396 642.38012505 C347.59960702 642.37079563 349.73794321 642.38147789 351.8770752 642.39674377 C357.94717562 642.43625982 364.01719429 642.43805475 370.08740234 642.43579102 C373.83201816 642.43573935 377.57617436 642.45517187 381.32066345 642.48512459 C383.40001914 642.49574278 385.47841737 642.48395175 387.55773926 642.47129822 C405.11345922 642.60733034 420.80756845 648.25886982 433.61328125 660.5078125 C443.36454523 670.6899834 452.17797971 682.26696957 460 694 C463.03864948 692.64044743 465.13487937 691.11309872 467.48016357 688.76034546 C468.1503804 688.09287796 468.82059723 687.42541046 469.51112366 686.73771667 C470.2354509 686.00619888 470.95977814 685.27468109 471.70605469 684.52099609 C472.47717087 683.75017197 473.24828705 682.97934784 474.04277039 682.18516541 C476.59057438 679.635968 479.13122091 677.07975928 481.671875 674.5234375 C483.43692138 672.75466104 485.20240982 670.98632561 486.96832275 669.21841431 C491.1403491 665.03953172 495.30789848 660.85621906 499.47330117 656.67073691 C504.68207257 651.43740365 509.89776266 646.21098257 515.11328125 640.984375 C524.41441813 631.66178733 533.70938262 622.33307054 543 613 C541.76661202 609.29983605 540.36179556 608.45296966 537.3125 606.0625 C532.17686835 601.96598448 527.17363829 597.74823847 522.20776367 593.44799805 C518.58552232 590.32311236 514.89083456 587.32716393 511.125 584.375 C496.32745033 572.24621662 490.51340927 555.98235527 485.75 538.125 C485.28575519 536.43342713 484.81998281 534.74227284 484.3527832 533.05151367 C482.122908 524.95405456 479.95526889 516.84001097 477.79177856 508.72460938 C476.82865941 505.11987789 475.85688847 501.51750148 474.88464355 497.91522217 C474.20540468 495.3793455 473.5420866 492.8396855 472.87988281 490.29931641 C472.45572587 488.71629765 472.03095159 487.13344414 471.60546875 485.55078125 C471.34339882 484.5169355 471.34339882 484.5169355 471.07603455 483.46220398 C467.65406659 470.94695725 460.93460174 462.05665998 451.82568359 453.11279297 C450.69702426 451.98254812 449.56967549 450.85099329 448.44352722 449.71824646 C445.40965623 446.67419564 442.3576416 443.64897724 439.30151701 440.62729025 C436.09674764 437.45279359 432.9083894 434.26189102 429.71792603 431.07302856 C424.36654127 425.72900286 419.00405845 420.39633398 413.63378906 415.07128906 C406.74146371 408.23688827 399.86793248 401.38390033 393.00006676 394.52493095 C387.08527327 388.61809401 381.16198668 382.71979506 375.23731279 376.82287073 C373.336399 374.93014701 371.43665364 373.03625645 369.53705978 371.1422081 C366.55587262 368.17080929 363.56943698 365.20478426 360.57883644 362.24286079 C359.48226151 361.15532451 358.38735601 360.06610197 357.29424477 358.9750843 C355.8028942 357.48723041 354.30555896 356.0056735 352.80648804 354.52560425 C351.55163384 353.27967404 351.55163384 353.27967404 350.27142906 352.00857353 C346.33012054 348.52336323 343.38019024 347.53997637 338.03125 347.6796875 C334.64570842 348.21356136 332.55819552 349.80726098 330 352 Z M102 355 C102.06960938 356.13050781 102.13921875 357.26101563 102.2109375 358.42578125 C102.69988125 370.53958604 100.96918842 381.38843302 98.04638672 393.14770508 C97.77197754 394.25525146 97.49756836 395.36279785 97.21484375 396.50390625 C96.95823975 397.49205322 96.70163574 398.4802002 96.43725586 399.49829102 C95.77540651 402.11762439 95.77540651 402.11762439 97 405 C105.91 396.09 114.82 387.18 124 378 C122.1256958 374.2513916 120.59842997 372.35258984 117.68359375 369.453125 C116.83732422 368.60878906 115.99105469 367.76445312 115.11914062 366.89453125 C114.23419922 366.02183594 113.34925781 365.14914062 112.4375 364.25 C111.54869141 363.36183594 110.65988281 362.47367187 109.74414062 361.55859375 C106.31631161 357.39888428 106.31631161 357.39888428 102 355 Z " fill="#000000" transform="translate(357,78)"/>
<path d="M0 0 C1.13953125 0.54527344 2.2790625 1.09054687 3.453125 1.65234375 C7.72803753 3.69245595 12.01082477 5.71545726 16.29785156 7.72998047 C18.019629 8.53922209 19.74043982 9.3505258 21.45996094 10.16455078 C51.98383947 24.56083135 83.88720463 33.81365739 117 40 C117.89074219 40.17015625 118.78148437 40.3403125 119.69921875 40.515625 C141.78034881 44.64028053 165.55826902 45.95638695 188 45 C188.99725098 44.95891113 189.99450195 44.91782227 191.02197266 44.87548828 C240.57059779 42.60912562 291.45971065 32.01816582 335.55078125 8.61328125 C339 7 339 7 342 8 C343.3503418 10.13305664 343.3503418 10.13305664 344.69921875 12.91015625 C345.42915039 14.39418945 345.42915039 14.39418945 346.17382812 15.90820312 C346.67333984 16.94912109 347.17285156 17.99003906 347.6875 19.0625 C348.19861328 20.10728516 348.70972656 21.15207031 349.23632812 22.22851562 C350.49993293 24.81477219 351.75399255 27.40523138 353 30 C349.50711543 33.84973636 345.17526654 35.46381024 340.5 37.5625 C339.53312256 37.99796143 338.56624512 38.43342285 337.57006836 38.88208008 C249.71463379 77.75449895 147.46529417 84.71583282 56 54 C54.95312012 53.65098633 53.90624023 53.30197266 52.82763672 52.94238281 C36.05794627 47.29590971 19.87890935 40.8117343 4 33 C3.18499023 32.59942383 2.36998047 32.19884766 1.53027344 31.78613281 C-7.44158419 27.32475856 -7.44158419 27.32475856 -11 25 C-12 22 -12 22 -11.01196289 19.63989258 C-10.5039917 18.73392334 -9.99602051 17.8279541 -9.47265625 16.89453125 C-8.92802734 15.91162109 -8.38339844 14.92871094 -7.82226562 13.91601562 C-7.24154297 12.89185547 -6.66082031 11.86769531 -6.0625 10.8125 C-5.48564453 9.77673828 -4.90878906 8.74097656 -4.31445312 7.67382812 C-2.8852447 5.11070228 -1.44682855 2.55320826 0 0 Z " fill="#000000" transform="translate(434,796)"/>
<path d="M0 0 C3.40171359 1.59967527 4.47172577 5.51192699 5.93896484 8.79052734 C6.32294434 9.62737061 6.70692383 10.46421387 7.10253906 11.32641602 C46.02977512 97.78692965 53.69586889 197.33924214 22.81396484 297.85302734 C22.4660791 298.90780273 22.11819336 299.96257812 21.75976562 301.04931641 C14.43869981 322.91534638 4.92308151 343.66460792 -6.18603516 363.85302734 C-9.46871272 363.19055928 -12.0331769 361.97673676 -14.95166016 360.34912109 C-15.84111328 359.85605469 -16.73056641 359.36298828 -17.64697266 358.85498047 C-18.56736328 358.33871094 -19.48775391 357.82244141 -20.43603516 357.29052734 C-21.37189453 356.77039063 -22.30775391 356.25025391 -23.27197266 355.71435547 C-25.57899818 354.43136679 -27.88354596 353.14413389 -30.18603516 351.85302734 C-28.84530044 347.39725228 -27.04911926 343.63981109 -24.74853516 339.60302734 C-7.10472561 307.37350372 3.27302744 270.92948567 9.62646484 234.91552734 C9.82143555 233.8167627 10.01640625 232.71799805 10.21728516 231.5859375 C13.27661013 213.22728983 14.19413707 194.93860185 14.12646484 176.35302734 C14.12373062 174.78313049 14.12373062 174.78313049 14.12094116 173.18151855 C14.07141112 156.21998074 13.3725452 139.64480301 10.81396484 122.85302734 C10.55655518 121.12463623 10.55655518 121.12463623 10.29394531 119.36132812 C4.94202438 84.42318475 -5.67142261 51.33692465 -20.37158203 19.26660156 C-20.73832031 18.45852051 -21.10505859 17.65043945 -21.48291016 16.81787109 C-21.81129883 16.10107178 -22.1396875 15.38427246 -22.47802734 14.64575195 C-23.18603516 12.85302734 -23.18603516 12.85302734 -23.18603516 10.85302734 C-19.7798555 8.97909325 -16.35961983 7.13244282 -12.93603516 5.29052734 C-11.96794922 4.7575 -10.99986328 4.22447266 -10.00244141 3.67529297 C-9.06787109 3.17578125 -8.13330078 2.67626953 -7.17041016 2.16162109 C-6.31157227 1.69554443 -5.45273437 1.22946777 -4.56787109 0.74926758 C-2.18603516 -0.14697266 -2.18603516 -0.14697266 0 0 Z " fill="#000000" transform="translate(960.18603515625,302.14697265625)"/>
<path d="M0 0 C5.03214965 1.80011857 9.59261018 4.41256121 14.25 7 C15.07757813 7.45117188 15.90515625 7.90234375 16.7578125 8.3671875 C17.93730469 9.02074219 17.93730469 9.02074219 19.140625 9.6875 C19.85766602 10.08324219 20.57470703 10.47898437 21.31347656 10.88671875 C23 12 23 12 24 14 C23.26245117 15.77392578 23.26245117 15.77392578 22.04296875 17.9453125 C21.59501953 18.76161133 21.14707031 19.57791016 20.68554688 20.41894531 C19.94401367 21.75844238 19.94401367 21.75844238 19.1875 23.125 C-0.57472142 60.00520195 -12.09578519 100.72274601 -18 142 C-18.11327637 142.78793945 -18.22655273 143.57587891 -18.34326172 144.38769531 C-27.41329678 210.27082517 -17.34619989 286.09605937 14.15380859 345.16357422 C14.52973145 345.87143066 14.9056543 346.57928711 15.29296875 347.30859375 C15.64254639 347.94466553 15.99212402 348.5807373 16.35229492 349.23608398 C17 351 17 351 16 354 C13.86694336 355.3503418 13.86694336 355.3503418 11.08984375 356.69921875 C9.60581055 357.42915039 9.60581055 357.42915039 8.09179688 358.17382812 C6.53041992 358.9230957 6.53041992 358.9230957 4.9375 359.6875 C3.89271484 360.19861328 2.84792969 360.70972656 1.77148438 361.23632812 C-0.81477219 362.49993293 -3.40523138 363.75399255 -6 365 C-34.40291182 338.59291426 -43.36857338 264.83812344 -47 229 C-47.08918701 228.1646875 -47.17837402 227.329375 -47.27026367 226.46875 C-55.11292845 148.17415836 -37.83834408 68.76301541 0 0 Z " fill="#000000" transform="translate(268,288)"/>
<path d="M0 0 C1.51892853 -0.00101212 1.51892853 -0.00101212 3.06854248 -0.00204468 C66.9394815 0.06521436 133.53274013 15.67646332 188.9375 48.25 C187.35945846 53.85476823 184.67333615 58.60050626 181.8125 63.625 C181.34457031 64.45644531 180.87664062 65.28789062 180.39453125 66.14453125 C179.24679451 68.18234954 178.09436718 70.21735569 176.9375 72.25 C172.05880051 70.87353887 167.81706541 68.70461571 163.35205078 66.36621094 C130.21511673 49.07217713 93.74425177 37.87993967 56.875 32.0625 C55.89595703 31.90749023 54.91691406 31.75248047 53.90820312 31.59277344 C35.69665218 28.87701584 17.58749493 27.83764748 -0.8125 27.875 C-1.87832306 27.87587616 -2.94414612 27.87675232 -4.04226685 27.87765503 C-22.68461822 27.92786836 -40.6706117 29.05788682 -59.0625 32.25 C-60.08325623 32.4246579 -60.08325623 32.4246579 -61.12463379 32.60284424 C-95.28668281 38.48060104 -128.20483013 48.58709517 -159.26171875 64.1328125 C-162.0625 65.25 -162.0625 65.25 -165.0625 64.25 C-166.4128418 62.11694336 -166.4128418 62.11694336 -167.76171875 59.33984375 C-168.24833984 58.35048828 -168.73496094 57.36113281 -169.23632812 56.34179688 C-169.9855957 54.78041992 -169.9855957 54.78041992 -170.75 53.1875 C-171.26111328 52.14271484 -171.77222656 51.09792969 -172.29882812 50.02148438 C-173.56243293 47.43522781 -174.81649255 44.84476862 -176.0625 42.25 C-131.98503614 6.97641939 -54.31129975 0.03274373 0 0 Z " fill="#000000" transform="translate(611.0625,85.75)"/>
</svg>
