<?xml version="1.0" encoding="UTF-8"?>
<svg version="1.1" xmlns="http://www.w3.org/2000/svg" width="1175" height="985">
<path d="M0 0 C2.54144931 0.40173337 5.0830492 0.80251506 7.62478638 1.2024231 C13.08439742 2.06295525 18.54271227 2.93133539 24.00020599 3.80519104 C31.94499997 5.07730155 39.89168239 6.33727926 47.8388392 7.59453338 C60.808302 9.6466627 73.77620768 11.70846404 86.74316406 13.77636719 C99.20654212 15.76394149 111.67062984 17.74696295 124.13574219 19.72363281 C124.89833472 19.8445634 125.66092726 19.96549399 126.44662866 20.09008914 C130.28003591 20.69795703 134.11345648 21.30574095 137.94688177 21.91349506 C156.25747405 24.81659229 174.56767744 27.72214892 192.87661269 30.63567966 C194.23879455 30.85243565 195.60098229 31.06915469 196.96317598 31.28583628 C204.17719959 32.43337102 211.39079491 33.58348825 218.60331345 34.74045563 C229.67449758 36.51470816 240.74637848 38.276587 251.83344436 39.94920588 C256.48787762 40.65233328 261.14047705 41.36717883 265.79297876 42.08296108 C267.94461491 42.41041563 270.09717036 42.731897 272.25068045 43.04679203 C297.23729205 46.70198194 297.23729205 46.70198194 304.28613281 55.14648438 C308.18940797 61.03447571 309.63558894 67.23313362 308.78613281 74.27148438 C307.43002654 80.22011863 304.51617694 85.36850101 299.78613281 89.27148438 C293.14111052 93.3101112 288.00647871 93.84359994 280.31724548 93.77700806 C278.61155949 93.78614324 278.61155949 93.78614324 276.8714152 93.79546297 C273.07056146 93.81104809 269.27033918 93.79827985 265.46948242 93.78564453 C262.74076439 93.78887763 260.01207499 93.79815721 257.28337097 93.80723572 C251.41213492 93.82371005 245.54103511 93.82588387 239.66978264 93.81847 C231.17342008 93.80793759 222.6772237 93.82136417 214.18088324 93.84093456 C200.3848298 93.87224947 186.58881155 93.8872776 172.79272461 93.890625 C171.96769389 93.89082899 171.14266317 93.89103298 170.29263151 93.89124314 C169.4665691 93.89144651 168.64050669 93.89164988 167.78941208 93.89185941 C156.0759927 93.89477991 144.36258417 93.9015849 132.64916992 93.91308594 C131.82484476 93.91389123 131.0005196 93.91469653 130.15121489 93.91552623 C116.40431457 93.92928358 102.65743363 93.95107357 88.91055113 93.97695577 C80.43574674 93.9923924 71.96100577 93.99961224 63.48618758 93.99616085 C57.68055679 93.99411982 51.87495753 93.99878526 46.06933492 94.0087042 C42.72059992 94.01413341 39.37201469 94.01511118 36.02326965 94.00953102 C32.39144898 94.00389711 28.75984448 94.01042876 25.1280365 94.01992798 C24.07219972 94.01526477 23.01636294 94.01060155 21.92853111 94.00579703 C14.98954949 94.04128537 9.28647136 94.09033798 3.84863281 98.83398438 C1.42238188 102.11986726 1.12335099 105.07242385 1.36035156 109.08789062 C2.02988152 112.52153508 3.5025415 114.67072761 5.78613281 117.27148438 C9.26016037 119.5827622 12.19946135 119.47519986 16.30444336 119.3840332 C17.64409643 119.361571 18.98375213 119.33926494 20.32341003 119.3170929 C21.03111227 119.3018136 21.73881451 119.28653431 22.46796227 119.27079201 C26.25663192 119.19814834 30.04571508 119.18855269 33.83496094 119.16796875 C38.63901712 119.13854424 43.44063098 119.0915221 48.2434082 118.97338867 C79.98251717 118.22957417 79.98251717 118.22957417 90.78335571 128.12945557 C91.95239197 129.2896642 93.10338403 130.46844369 94.23226929 131.66775513 C96.43878252 133.94507856 98.91674381 135.75869053 101.47753906 137.61914062 C102.69280273 138.54629883 102.69280273 138.54629883 103.93261719 139.4921875 C111.4904353 145.25372548 119.06131419 150.99580901 126.67553711 156.68261719 C130.49714671 159.54121402 134.30009829 162.42280249 138.09082031 165.32226562 C139.01378906 166.02802734 139.93675781 166.73378906 140.88769531 167.4609375 C142.67814933 168.83151744 144.46730787 170.20379215 146.25488281 171.578125 C163.32873112 184.82640804 163.32873112 184.82640804 184.09863281 188.80273438 C193.49625049 187.4488403 201.18009532 182.45064115 209.03613281 177.39648438 C210.07535889 176.73737061 211.11458496 176.07825684 212.18530273 175.39916992 C215.39046106 173.36416033 218.58847019 171.31824597 221.78613281 169.27148438 C223.71397658 168.0453719 225.64234177 166.82007878 227.57128906 165.59570312 C231.23527922 163.26892158 234.89661298 160.93805615 238.55566406 158.60351562 C243.45668912 155.47828961 248.36930556 152.3717727 253.28613281 149.27148438 C260.13028373 144.95504789 266.96149176 140.61869943 273.78613281 136.27148438 C284.53899536 129.42270636 295.31618643 122.61302084 306.09960938 115.8125 C316.2789589 109.39200923 326.44337418 102.94873415 336.59399414 96.48291016 C343.25333038 92.24255111 349.92493213 88.02205614 356.60253906 83.81054688 C362.6734931 79.97946069 368.73145909 76.12823941 374.78613281 72.27148438 C385.53899536 65.42270636 396.31618643 58.61302084 407.09960938 51.8125 C415.40470506 46.57417018 423.70472969 41.32822823 431.98706055 36.05395508 C434.76829726 34.28284219 437.55064539 32.51348436 440.33300781 30.74414062 C443.91099622 28.46810707 447.48325963 26.18345758 451.05175781 23.89257812 C452.7131491 22.83127525 454.37460443 21.77007261 456.03613281 20.70898438 C456.77347656 20.23267578 457.51082031 19.75636719 458.27050781 19.265625 C475.38602259 8.36688688 475.38602259 8.36688688 484.78613281 10.27148438 C490.43421477 12.56966945 493.86038938 15.88811647 496.78613281 21.27148438 C497.67005812 23.9232603 498.00633655 25.71438506 498.09863281 28.45898438 C498.13601563 29.17441406 498.17339844 29.88984375 498.21191406 30.62695312 C496.90677955 38.73315557 492.25039821 43.13412151 485.84863281 47.77148438 C485.06085449 48.3626001 484.27307617 48.95371582 483.46142578 49.56274414 C481.77714484 50.82603736 480.08819926 52.0831316 478.39501953 53.33447266 C474.91248434 55.92013934 471.47359733 58.5609388 468.03198242 61.20068359 C459.31548937 67.87994506 450.53339933 74.47137367 441.74145508 81.05078125 C436.2257035 85.18170847 430.74777066 89.35594184 425.29394531 93.56835938 C412.85665199 103.16726626 400.32117108 112.63706238 387.74267578 122.04980469 C382.22657475 126.18113338 376.74818298 130.35562338 371.29394531 134.56835938 C358.85665199 144.16726626 346.32117108 153.63706238 333.74267578 163.04980469 C328.22657475 167.18113338 322.74818298 171.35562338 317.29394531 175.56835938 C304.85665199 185.16726626 292.32117108 194.63706238 279.74267578 204.04980469 C274.23178525 208.17723093 268.75835426 212.34749005 263.30957031 216.55664062 C251.80756827 225.43400184 240.22797802 234.21140256 228.59228516 242.91259766 C223.90615954 246.42098391 219.24653688 249.96264483 214.59863281 253.52148438 C213.90785645 254.0497583 213.21708008 254.57803223 212.50537109 255.12231445 C208.47356409 258.20743151 204.44960381 261.30243544 200.43066406 264.40429688 C198.59088432 265.81844266 196.75104145 267.23250631 194.91113281 268.64648438 C194.06784424 269.30036133 193.22455566 269.95423828 192.35571289 270.62792969 C179.22383024 280.70036717 166.94325364 288.87472811 149.78613281 287.27148438 C139.21968349 285.33334777 128.9833362 281.49276441 118.80828857 278.12521362 C113.31447619 276.30759843 107.81571693 274.50505303 102.31738281 272.70117188 C100.61671158 272.14274849 100.61671158 272.14274849 98.88168335 271.57304382 C87.66019629 267.89277976 76.41302093 264.2949926 65.16113281 260.70898438 C45.52871639 254.44706032 25.91883078 248.11731693 6.31681824 241.76102829 C2.51660326 240.52875582 -1.2836934 239.29673533 -5.08398438 238.06469727 C-5.83694038 237.82059207 -6.58989639 237.57648687 -7.36566925 237.32498455 C-9.64579402 236.58578555 -11.92592393 235.8466024 -14.20605469 235.10742188 C-14.95854492 234.86346869 -15.71103516 234.6195155 -16.48632812 234.36816978 C-38.94355396 227.08790623 -61.40632569 219.82497925 -83.88131714 212.59973145 C-90.4427924 210.48934555 -97.00038841 208.36763121 -103.55355835 206.2315979 C-107.2935558 205.01434433 -111.03632957 203.80580814 -114.77984619 202.59942627 C-116.43391965 202.06426977 -118.08680446 201.52541908 -119.73822021 200.9821167 C-141.56112024 193.80667905 -161.72425713 191.64296277 -184.71386719 191.52148438 C-187.43485737 191.49515851 -190.15577484 191.46316977 -192.87670898 191.43164062 C-208.95041535 191.25586964 -225.03020073 191.15539852 -241.10449219 191.30761719 C-247.70942043 191.35325001 -254.29322076 191.26295354 -260.88964844 190.93554688 C-262.18684814 190.87318848 -263.48404785 190.81083008 -264.82055664 190.74658203 C-268.84608672 190.18296727 -271.16075771 189.02877216 -274.04980469 186.23242188 C-277.73031267 180.03237152 -277.50569286 173.32323528 -277.48852539 166.33837891 C-277.49363632 165.25941345 -277.49874725 164.180448 -277.50401306 163.06878662 C-277.51787504 159.51389975 -277.51695476 155.95920751 -277.51464844 152.40429688 C-277.5185373 149.92479379 -277.52287236 147.44529136 -277.52763367 144.96578979 C-277.53508864 139.77258137 -277.53480985 134.57944094 -277.52954102 129.38623047 C-277.52374823 122.74302851 -277.54067657 116.10011257 -277.56388569 109.4569416 C-277.57864317 104.33700951 -277.57949195 99.21714427 -277.57637596 94.09719467 C-277.57688818 91.6484713 -277.58210725 89.19974409 -277.59218788 86.75104141 C-277.60457331 83.32163808 -277.59774739 79.8927741 -277.58618164 76.46337891 C-277.59382538 75.45945099 -277.60146912 74.45552307 -277.60934448 73.4211731 C-277.55571693 66.19896979 -277.02186244 59.07947963 -271.71386719 53.77148438 C-268.39896039 51.7825403 -265.87292211 51.1467122 -262.07740784 51.1401825 C-261.23552917 51.13617432 -260.39365051 51.13216614 -259.52626038 51.1280365 C-258.60534103 51.12856522 -257.68442169 51.12909393 -256.7355957 51.12963867 C-255.27620071 51.12442703 -255.27620071 51.12442703 -253.787323 51.11911011 C-251.66915523 51.11174918 -249.55097972 51.10640559 -247.4328022 51.10281944 C-244.06231136 51.09563822 -240.69196479 51.07995286 -237.32151794 51.06147766 C-227.73577017 51.0091312 -218.15009616 50.9611805 -208.56420898 50.94555664 C-202.69908775 50.93537144 -196.83432258 50.90577101 -190.96934319 50.86423683 C-188.75024063 50.85205636 -186.53108743 50.84678142 -184.31195259 50.84903526 C-147.12667307 50.87747065 -121.40541902 36.77767848 -89.65136719 18.70898438 C-81.77719374 14.23244514 -73.85157839 9.87054505 -65.83886719 5.64648438 C-64.9061499 5.14947021 -63.97343262 4.65245605 -63.01245117 4.14038086 C-42.08202225 -6.78618595 -22.46785352 -3.62357361 0 0 Z " fill="#040606" transform="translate(493.2138671875,571.728515625)"/>
<path d="M0 0 C58.31423652 -1.24558711 58.31423652 -1.24558711 69.28222656 6.06640625 C69.02642822 6.67186279 68.77062988 7.27731934 68.50708008 7.90112305 C67.27245929 10.84644584 66.05889192 13.80009482 64.84472656 16.75390625 C64.44318359 17.70330078 64.04164063 18.65269531 63.62792969 19.63085938 C54.35012094 42.36503196 48.47858011 66.34128201 42.71356201 90.15185547 C41.23610825 96.25377056 39.74947171 102.35339595 38.24707031 108.44921875 C38.08506008 109.10670923 37.92304985 109.76419971 37.75613022 110.44161415 C28.51492262 147.79117399 17.14821459 186.51553837 -5.71777344 218.06640625 C-6.09562988 218.59234375 -6.47348633 219.11828125 -6.86279297 219.66015625 C-28.24021857 249.10076837 -56.36906064 270.26892005 -92.71777344 276.06640625 C-112.91436582 279.11152855 -135.10912468 279.6026225 -154.71777344 273.06640625 C-154.128311 268.90967973 -151.75323499 265.93160788 -149.34277344 262.62890625 C-148.67773804 261.70899902 -148.67773804 261.70899902 -147.99926758 260.77050781 C-143.22566588 254.25641734 -138.03804525 248.13656801 -132.71777344 242.06640625 C-131.66203125 240.84244141 -131.66203125 240.84244141 -130.58496094 239.59375 C-120.24619535 227.82013672 -109.11770786 216.65615723 -96.71777344 207.06640625 C-95.63019235 206.19083974 -94.54434601 205.3131154 -93.45996094 204.43359375 C-79.02064773 192.78569037 -63.62080735 183.542473 -47.30737305 174.77026367 C-46.51596924 174.3394751 -45.72456543 173.90868652 -44.90917969 173.46484375 C-44.1944751 173.0786084 -43.47977051 172.69237305 -42.7434082 172.29443359 C-33.9744373 166.97830443 -29.17475514 157.62868322 -26.34277344 148.00390625 C-24.42125522 135.89834145 -26.31011087 125.81807961 -32.93261719 115.453125 C-39.48614983 106.69118092 -48.83399439 100.73314117 -59.71777344 99.06640625 C-90.729176 96.52721758 -122.96534782 123.57748763 -145.71777344 142.06640625 C-146.78615431 142.92136021 -147.85510638 143.7756012 -148.92480469 144.62890625 C-154.18291941 148.86481405 -159.25893292 153.26847565 -164.24902344 157.81640625 C-166.74109709 160.08766325 -169.26018192 162.3263249 -171.78027344 164.56640625 C-179.25944428 171.30703828 -186.18152198 178.4151472 -192.71777344 186.06640625 C-193.61015547 187.0840768 -194.50346041 188.10093847 -195.39746094 189.1171875 C-201.52657198 196.12535809 -207.29431454 203.31179847 -212.79663086 210.82421875 C-213.26689697 211.46488281 -213.73716309 212.10554687 -214.22167969 212.765625 C-214.63232666 213.33112061 -215.04297363 213.89661621 -215.46606445 214.47924805 C-216.77642874 216.14078076 -218.19439003 217.60002865 -219.71777344 219.06640625 C-233.79110329 194.83706517 -235.13487906 163.89066566 -228.71777344 137.06640625 C-228.55148437 136.36789551 -228.38519531 135.66938477 -228.21386719 134.94970703 C-222.58297882 112.21238836 -211.45118988 92.11484139 -196.71777344 74.06640625 C-196.08871094 73.29425781 -195.45964844 72.52210938 -194.81152344 71.7265625 C-182.12239211 56.70147746 -164.5892828 45.79608024 -147.71777344 36.06640625 C-147.0472998 35.67356445 -146.37682617 35.28072266 -145.68603516 34.87597656 C-102.12557254 9.57445507 -49.66160307 1.21343479 0 0 Z " fill="#040606" transform="translate(890.7177734375,83.93359375)"/>
<path d="M0 0 C1.01690918 0.17660156 2.03381836 0.35320312 3.08154297 0.53515625 C46.75267673 8.35296239 106.083252 27.68812864 133.24658203 65.74658203 C150.43962849 90.86185074 156.80265725 117.85576113 156 148 C152.25039376 145.59145465 148.91184635 143.13358674 145.6875 140.0625 C139.18622585 134.11764121 132.17764373 128.87047902 125.12988281 123.59472656 C123.17283208 122.12940614 121.2228614 120.6551256 119.2734375 119.1796875 C82.78811443 90.30180415 82.78811443 90.30180415 39.5 80.5 C28.96312889 82.49380316 19.48746543 87.30188376 13 96 C6.19423846 107.58617609 3.99773837 118.97663001 6.6484375 132.24609375 C10.64734102 144.29407232 19.52330692 152.99872655 30.65942383 158.625 C31.45243896 159.016875 32.2454541 159.40875 33.0625 159.8125 C56.76320834 171.92472149 78.09256387 188.43725485 98 206 C98.58861816 206.51868652 99.17723633 207.03737305 99.78369141 207.57177734 C101.48829829 209.0813836 103.18361949 210.60060049 104.875 212.125 C105.39328369 212.58640381 105.91156738 213.04780762 106.44555664 213.52319336 C107.6698919 214.64029678 108.84086059 215.81538499 110 217 C110 217.66 110 218.32 110 219 C81.2571871 233.27330811 44.44156385 235.61532152 13.9375 225.6875 C2.69235429 221.59061989 -6.02432391 215.85689493 -15 208 C-15.93070312 207.20335937 -16.86140625 206.40671875 -17.8203125 205.5859375 C-24.29831797 199.90189371 -29.79005989 193.8556629 -35 187 C-35.79019531 185.98679687 -36.58039063 184.97359375 -37.39453125 183.9296875 C-60.17981726 153.98872915 -69.34698296 116.63721817 -78.32421875 80.78515625 C-79.52782507 75.98156458 -80.73210647 71.17814352 -81.9375 66.375 C-82.2378717 65.17715881 -82.53824341 63.97931763 -82.84771729 62.74517822 C-88.31937171 40.99521374 -94.48097119 19.77847074 -103 -1 C-73.47752511 -11.29853775 -30.22989929 -5.43499306 0 0 Z " fill="#040606" transform="translate(420,144)"/>
<path d="M0 0 C1.48113281 0.49306641 1.48113281 0.49306641 2.9921875 0.99609375 C17.5061618 6.44354644 30.17005172 16.54884408 38.75 29.4375 C41.38526041 33.35960486 43.30325836 35.63011702 48 37 C53.58583863 37.45090505 57.27902244 36.25517362 62.125 33.6875 C79.46520251 25.20263912 99.81718245 24.24531424 118.3515625 29.671875 C136.07987229 36.12543531 151.33007833 47.55180526 161 64 C161 64.66 161 65.32 161 66 C162.175625 66.4640625 162.175625 66.4640625 163.375 66.9375 C166 68 166 68 168 69 C174.61941171 69.32811739 179.02758978 67.05431932 184.4765625 63.55859375 C198.13322553 55.12359599 214.26298574 54.49341291 229.51171875 58.03125 C238.84424379 60.62303747 248.00138755 65.1909051 255 72 C255 73.32 255 74.64 255 76 C253.28198242 77.54882812 253.28198242 77.54882812 250.85546875 79.03125 C249.96085937 79.588125 249.06625 80.145 248.14453125 80.71875 C247.16871094 81.3065625 246.19289063 81.894375 245.1875 82.5 C244.1871875 83.11875 243.186875 83.7375 242.15625 84.375 C240.09495675 85.64991902 238.03030567 86.91942439 235.96240234 88.18359375 C231.78146812 90.74714663 227.64087944 93.37245044 223.5 96 C221.94808447 96.97943259 220.39599878 97.95859563 218.84375 98.9375 C213.55403093 102.2783752 208.27682405 105.63880768 203 109 C177.41978437 125.28910868 177.41978437 125.28910868 165.375 132.75 C164.35148437 133.38421875 163.32796875 134.0184375 162.2734375 134.671875 C160 136 160 136 159 136 C158.78085937 134.97261719 158.56171875 133.94523438 158.3359375 132.88671875 C155.08983044 118.39585833 149.94899508 107.14888483 137.515625 98.21484375 C129.53377479 93.17041357 121.22845244 90.79390476 111.95849609 89.37548828 C111.08663194 89.23570871 110.21476778 89.09592915 109.3164835 88.95191383 C106.38657393 88.48409987 103.45505776 88.02727409 100.5234375 87.5703125 C98.3684299 87.22854923 96.21353118 86.88609888 94.05873108 86.54302979 C88.09291663 85.59517915 82.12563575 84.6568587 76.1580925 83.71996307 C69.76343909 82.7142825 63.37019665 81.69971083 56.97680664 80.68603516 C46.1648203 78.97262866 35.35207641 77.26406578 24.53886807 75.55838943 C1.93950231 71.99344869 -20.65709779 68.41111019 -43.25350952 64.82749987 C-52.67142446 63.33390901 -62.08937396 61.84053609 -71.50732422 60.34716797 C-72.54283149 60.18296695 -73.57833877 60.01876592 -74.64522505 59.84958911 C-90.23730864 57.37718621 -105.82972209 54.906872 -121.42236328 52.43798828 C-123.4135023 52.12270001 -125.40464108 51.80741022 -127.39577961 51.49211884 C-135.8656294 50.15096786 -144.33549864 48.80994025 -152.80545282 47.46944869 C-156.21157194 46.93033405 -159.61766056 46.39102686 -163.02374148 45.85167098 C-164.59162468 45.60344157 -166.1595216 45.35529886 -167.72743344 45.10725045 C-169.86227452 44.76950641 -171.99706827 44.43146469 -174.1318512 44.09335327 C-175.32126595 43.90509665 -176.51068071 43.71684002 -177.73613834 43.52287865 C-180.82629893 43.02782734 -183.91365263 42.51824341 -187 42 C-183.41334476 38.04652775 -179.89392531 35.56980922 -175 33.375 C-174.33484375 33.07650146 -173.6696875 32.77800293 -172.984375 32.47045898 C-154.93719877 24.63724401 -133.52060553 24.34951053 -115 31 C-111.5885196 32.50885325 -108.25944172 34.07908744 -104.96484375 35.828125 C-101.32341711 37.26742407 -98.88892841 37.46823218 -95 37 C-90.25109205 34.54042963 -87.59972907 31.52878705 -84.5625 27.1875 C-74.8824107 13.94949708 -62.53217735 5.35230436 -47 0 C-45.69289063 -0.47759766 -45.69289063 -0.47759766 -44.359375 -0.96484375 C-30.68346094 -5.20437711 -13.48510207 -4.53790219 0 0 Z " fill="#040606" transform="translate(669,502)"/>
<path d="M0 0 C3.08971754 1.54485877 4.94169443 3.24410863 6.921875 6.0546875 C8.60493731 11.20287811 8.56587416 15.2279048 7.109375 20.4296875 C3.24294515 25.66073965 -2.57095548 28.05447235 -8.26953125 30.96875 C-24.36839925 39.23598026 -39.47249316 49.4321095 -53.40917969 60.97460938 C-54.47504427 61.85710637 -55.54599549 62.73349768 -56.62207031 63.60351562 C-64.81088229 70.2276179 -72.35807802 77.44621239 -79.828125 84.8671875 C-80.69961182 85.72940918 -81.57109863 86.59163086 -82.46899414 87.47998047 C-88.40628515 93.44607957 -93.7838983 99.71574942 -99.015625 106.3046875 C-99.96886826 107.47362263 -100.9230975 108.64175542 -101.87890625 109.80859375 C-137.34192972 154.0949532 -159.53040486 208.16553645 -167.015625 264.3046875 C-167.68464844 264.2325 -168.35367188 264.1603125 -169.04296875 264.0859375 C-178.05056182 263.21540502 -186.97818641 263.20831671 -196.015625 263.3046875 C-195.54914886 253.80766563 -194.37943461 244.72421102 -192.390625 235.4296875 C-192.12556152 234.17663818 -191.86049805 232.92358887 -191.58740234 231.63256836 C-179.52000441 176.07680138 -154.21739219 123.3224613 -116.31054688 80.76269531 C-115.17386328 79.48285473 -114.0542467 78.18789842 -112.9375 76.890625 C-102.46395244 64.89140319 -91.1019255 53.03508118 -78.515625 43.25 C-75.78693016 41.12673432 -73.19435205 38.87731698 -70.578125 36.6171875 C-18.71660317 -6.45650264 -18.71660317 -6.45650264 0 0 Z " fill="#040606" transform="translate(831.015625,209.6953125)"/>
<path d="M0 0 C1.26254803 0.63278344 2.51616556 1.28360651 3.76171875 1.94921875 C4.44685547 2.30459717 5.13199219 2.65997559 5.83789062 3.02612305 C34.38700374 18.10338163 60.92524215 37.8673957 84.46875 59.875 C86.70575454 61.96161768 88.985858 63.97606835 91.32421875 65.94921875 C100.69814239 74.06395862 109.47551131 83.15257334 117.44921875 92.63671875 C118.72925781 94.08304688 118.72925781 94.08304688 120.03515625 95.55859375 C127.84641348 104.417207 134.92838361 113.72032422 141.78173828 123.33544922 C143.36793299 125.52453726 145.00563929 127.66226578 146.6640625 129.796875 C147.61461542 131.07583241 148.56391326 132.35572395 149.51171875 133.63671875 C149.9598291 134.18642334 150.40793945 134.73612793 150.86962891 135.30249023 C152.69461907 137.85528133 153.54122569 139.91141825 153.14428711 143.04052734 C152.35640869 145.94998358 151.41048724 148.78003942 150.44921875 151.63671875 C149.84806639 153.87453447 149.26393375 156.11697913 148.6953125 158.36328125 C148.39818359 159.49636719 148.10105469 160.62945312 147.79492188 161.796875 C147.17961925 164.14428758 146.57042708 166.49330882 145.96679688 168.84375 C145.67095703 169.96394531 145.37511719 171.08414063 145.0703125 172.23828125 C144.80661865 173.25229004 144.5429248 174.26629883 144.27124023 175.31103516 C143.44921875 177.63671875 143.44921875 177.63671875 141.44921875 178.63671875 C141.00606323 177.8317395 141.00606323 177.8317395 140.55395508 177.01049805 C133.19156106 163.70791042 125.32085085 150.98470424 116.44921875 138.63671875 C115.94390625 137.9317627 115.43859375 137.22680664 114.91796875 136.50048828 C100.57188797 116.62051892 84.02522164 97.65931918 65.44921875 81.63671875 C63.86484351 80.17951744 62.28154443 78.72114535 60.69921875 77.26171875 C55.12574479 72.25253732 49.27364343 67.64283118 43.33203125 63.08251953 C42.07946588 62.12068186 40.82944613 61.15551977 39.58203125 60.18701172 C25.02748747 48.89742654 9.79775885 38.58140718 -6.55224609 30.05810547 C-11.98615629 27.17217757 -17.77562359 23.92697913 -20.77734375 18.36328125 C-21.83455553 12.78700735 -21.56901745 8.55945085 -18.55078125 3.63671875 C-13.00939784 -1.76613008 -7.26403277 -2.78894107 0 0 Z " fill="#040606" transform="translate(472.55078125,251.36328125)"/>
<path d="M0 0 C40.92 0 81.84 0 124 0 C122.5404047 4.37878591 119.12125652 5.59510348 115.3125 7.8125 C113.66027472 8.79749649 112.00928691 9.78457091 110.359375 10.7734375 C109.48474609 11.29647461 108.61011719 11.81951172 107.70898438 12.35839844 C103.11279734 15.14361488 98.58901625 18.04089722 94.0625 20.9375 C92.2136155 22.11860518 90.36465717 23.29959477 88.515625 24.48046875 C87.60490234 25.06231934 86.69417969 25.64416992 85.75585938 26.24365234 C80.48267407 29.60432696 75.19146079 32.9364791 69.90063477 36.26928711 C69.16643311 36.73214111 68.43223145 37.19499512 67.67578125 37.671875 C67.03552002 38.0750293 66.39525879 38.47818359 65.7355957 38.89355469 C64.14370876 39.90838542 62.57078788 40.95280808 61 42 C55.45865681 42.89925306 52.74941228 42.20165748 48.1875 38.921875 C46.44333482 37.55010859 44.71478599 36.15831966 43 34.75 C41.13198441 33.27023478 39.26349052 31.79107317 37.39453125 30.3125 C36.47881348 29.57773437 35.5630957 28.84296875 34.61962891 28.0859375 C31.03224447 25.22940324 27.36903373 22.48334415 23.6875 19.75 C22.42041665 18.79968749 21.15348893 17.84916743 19.88671875 16.8984375 C17.08794009 14.80493666 14.27522912 12.73133739 11.45703125 10.6640625 C10.71171143 10.11395508 9.9663916 9.56384766 9.19848633 8.99707031 C7.76085774 7.93637022 6.31942417 6.88080301 4.8737793 5.83105469 C3.21261277 4.60198834 1.60064521 3.30690979 0 2 C0 1.34 0 0.68 0 0 Z " fill="#040606" transform="translate(617,692)"/>
</svg>
